<svg width="398" height="162" viewBox="0 0 398 162" fill="none" xmlns="http://www.w3.org/2000/svg">
<g id="RMJ - LOGO - BRANCA">
<g id="Group">
<path id="Vector" d="M26.61 3.75H74.48C98.95 3.75 111.63 17.86 111.63 35.36C111.63 38.04 111.27 40.72 110.74 43.4C108.06 56.44 100.02 65.55 87.88 69.66C95.56 73.05 98.77 78.59 98.77 86.27V86.98C98.59 96.27 92.16 113.59 94.13 128.77H58.77C57.34 114.66 64.13 96.98 64.13 87.33C64.13 82.51 61.81 79.83 56.45 79.83H45.56L35.2 128.77H0L26.61 3.75ZM56.44 28.93L50.55 56.26H62.69C69.48 56.26 74.48 52.15 76.26 43.94C76.62 42.15 76.8 40.55 76.8 39.12C76.8 32.51 73.05 28.94 65.55 28.94H56.44V28.93Z" fill="white"/>
<path id="Vector_2" d="M127.17 3.75H172.36L170.4 40.36L168.44 77.15L182.19 40.36L195.58 3.75H241.84L215.41 128.77H186.12L199.69 66.08L206.12 37.86L195.4 66.08L170.93 128.77H144.5L146.64 66.08L147.89 37.15L142.17 66.08L129.31 128.77H100.73L127.17 3.75Z" fill="white"/>
<path id="Vector_3" d="M211.68 140.38H219.18C222.75 140.38 224.36 138.59 225.07 134.66L247.39 29.11H280.79L257.75 137.16C254.18 153.06 244.89 161.45 230.07 161.45H207.03L211.67 140.37L211.68 140.38ZM253.65 0H286.87L282.23 22.5H248.83L253.65 0Z" fill="white"/>
</g>
<g id="Group_2">
<path id="Vector_4" d="M308.52 12.24C308 12.24 307.5 12.19 307.02 12.08C306.54 11.97 306.11 11.8 305.74 11.57C305.37 11.33 305.08 11.03 304.86 10.67C304.64 10.31 304.54 9.87001 304.54 9.36001C304.54 9.30001 304.54 9.25001 304.54 9.20001C304.54 9.15001 304.54 9.10001 304.54 9.07001H306.1C306.1 9.07001 306.1 9.14001 306.1 9.19001C306.1 9.25001 306.1 9.29001 306.1 9.33001C306.1 9.67001 306.2 9.96001 306.41 10.21C306.61 10.45 306.9 10.63 307.26 10.75C307.63 10.87 308.05 10.93 308.52 10.93C308.78 10.93 309.03 10.91 309.27 10.88C309.51 10.85 309.73 10.8 309.93 10.73C310.13 10.66 310.3 10.57 310.45 10.47C310.6 10.36 310.71 10.24 310.8 10.09C310.88 9.94001 310.93 9.77001 310.93 9.58001C310.93 9.28001 310.84 9.04001 310.67 8.84001C310.5 8.64001 310.27 8.48001 309.98 8.35001C309.69 8.22001 309.36 8.10001 308.99 8.00001C308.62 7.90001 308.25 7.80001 307.86 7.69001C307.47 7.59001 307.09 7.47001 306.73 7.33001C306.37 7.19001 306.04 7.02001 305.74 6.82001C305.45 6.62001 305.22 6.37001 305.05 6.07001C304.88 5.77001 304.79 5.40001 304.79 4.97001C304.79 4.54001 304.88 4.18001 305.05 3.86001C305.23 3.54001 305.48 3.26001 305.81 3.05001C306.14 2.83001 306.54 2.67001 307 2.56001C307.46 2.45001 307.99 2.39001 308.57 2.39001C309.07 2.39001 309.54 2.44001 309.99 2.55001C310.44 2.66001 310.82 2.82001 311.16 3.04001C311.49 3.26001 311.76 3.55001 311.94 3.89001C312.13 4.23001 312.22 4.64001 312.22 5.11001V5.28001H310.68V5.10001C310.68 4.80001 310.59 4.55001 310.42 4.35001C310.24 4.15001 310 3.99001 309.68 3.88001C309.36 3.77001 309 3.71001 308.58 3.71001C308.09 3.71001 307.68 3.76001 307.34 3.86001C307.01 3.96001 306.75 4.09001 306.58 4.26001C306.41 4.43001 306.32 4.64001 306.32 4.88001C306.32 5.15001 306.41 5.37001 306.58 5.54001C306.76 5.71001 306.99 5.86001 307.28 5.98001C307.57 6.10001 307.9 6.21001 308.27 6.31001C308.64 6.41001 309.01 6.51001 309.4 6.62001C309.79 6.73001 310.16 6.85001 310.53 6.99001C310.9 7.13001 311.22 7.30001 311.52 7.50001C311.81 7.70001 312.05 7.96001 312.22 8.26001C312.4 8.56001 312.48 8.93001 312.48 9.36001C312.48 10.05 312.31 10.6 311.97 11.04C311.63 11.47 311.16 11.78 310.56 11.98C309.96 12.18 309.28 12.27 308.51 12.27L308.52 12.24Z" fill="white"/>
<path id="Vector_5" d="M318.62 12.24C317.64 12.24 316.79 12.06 316.07 11.7C315.35 11.34 314.8 10.79 314.42 10.06C314.04 9.33001 313.84 8.41 313.84 7.31C313.84 6.21 314.03 5.28 314.42 4.55C314.8 3.82 315.36 3.28 316.07 2.92C316.79 2.56 317.64 2.38 318.62 2.38C319.6 2.38 320.48 2.56 321.19 2.92C321.9 3.28 322.45 3.83 322.84 4.55C323.22 5.28 323.42 6.2 323.42 7.31C323.42 8.42 323.23 9.33001 322.84 10.06C322.46 10.79 321.91 11.34 321.19 11.7C320.48 12.06 319.62 12.24 318.62 12.24ZM318.62 10.92C319.13 10.92 319.58 10.85 319.98 10.71C320.37 10.57 320.71 10.36 320.98 10.07C321.25 9.78 321.46 9.42 321.61 8.99C321.76 8.56 321.83 8.05 321.83 7.48V7.17C321.83 6.58 321.76 6.06 321.61 5.63C321.46 5.2 321.26 4.83 320.98 4.55C320.71 4.26 320.37 4.05 319.98 3.91C319.59 3.77 319.13 3.7 318.62 3.7C318.11 3.7 317.67 3.77 317.28 3.91C316.89 4.05 316.55 4.26 316.28 4.55C316.01 4.84 315.8 5.2 315.66 5.63C315.52 6.06 315.45 6.58 315.45 7.17V7.48C315.45 8.05 315.52 8.56 315.66 8.99C315.8 9.42 316 9.79 316.28 10.07C316.55 10.36 316.89 10.57 317.28 10.71C317.67 10.85 318.12 10.92 318.62 10.92Z" fill="white"/>
<path id="Vector_6" d="M325.21 12.08V2.54004H326.77V10.73H331.52V12.08H325.21Z" fill="white"/>
<path id="Vector_7" d="M336.3 12.24C335.48 12.24 334.78 12.11 334.19 11.84C333.6 11.58 333.14 11.17 332.83 10.61C332.52 10.05 332.36 9.35004 332.36 8.50004V2.54004H333.92V8.54004C333.92 9.33004 334.13 9.92004 334.55 10.32C334.97 10.72 335.56 10.92 336.32 10.92C337.08 10.92 337.69 10.72 338.12 10.32C338.55 9.92004 338.77 9.33004 338.77 8.54004V2.54004H340.33V8.50004C340.33 9.35004 340.17 10.06 339.85 10.61C339.53 11.17 339.07 11.58 338.47 11.84C337.87 12.1 337.16 12.24 336.32 12.24H336.3Z" fill="white"/>
<path id="Vector_8" d="M346.64 12.24C345.67 12.24 344.84 12.07 344.16 11.72C343.48 11.37 342.96 10.83 342.6 10.1C342.24 9.37 342.06 8.44 342.06 7.31C342.06 5.64 342.47 4.4 343.28 3.59C344.09 2.78 345.22 2.37 346.66 2.37C347.46 2.37 348.17 2.5 348.81 2.77C349.44 3.04 349.94 3.44 350.31 3.97C350.68 4.5 350.86 5.18 350.86 6.01H349.28C349.28 5.5 349.17 5.07 348.96 4.73C348.75 4.39 348.44 4.13 348.05 3.95C347.66 3.77 347.2 3.69 346.68 3.69C346.03 3.69 345.48 3.82 345.03 4.07C344.58 4.32 344.24 4.71 344.02 5.22C343.79 5.73 343.68 6.38 343.68 7.17V7.48C343.68 8.27 343.79 8.92 344.02 9.43C344.25 9.94 344.58 10.32 345.03 10.56C345.48 10.81 346.03 10.93 346.68 10.93C347.22 10.93 347.69 10.84 348.08 10.67C348.48 10.5 348.79 10.24 349 9.89999C349.22 9.55999 349.33 9.13 349.33 8.62H350.86C350.86 9.45 350.68 10.13 350.31 10.66C349.94 11.19 349.44 11.6 348.81 11.85C348.18 12.1 347.45 12.24 346.65 12.24H346.64ZM346.64 14.57C346.42 14.57 346.19 14.57 345.95 14.54C345.71 14.52 345.5 14.49 345.3 14.46V13.85H346.61C346.79 13.85 346.93 13.82 347.03 13.77C347.13 13.72 347.18 13.62 347.18 13.49C347.18 13.38 347.14 13.3 347.07 13.24C347 13.18 346.85 13.16 346.62 13.16H345.97L346.18 11.94H347.13L347.03 12.59C347.27 12.59 347.49 12.64 347.7 12.7C347.9 12.76 348.06 12.86 348.18 12.98C348.3 13.1 348.35 13.27 348.35 13.49C348.35 13.71 348.3 13.89 348.19 14.03C348.08 14.17 347.94 14.28 347.77 14.36C347.6 14.44 347.41 14.49 347.21 14.53C347.01 14.57 346.82 14.58 346.63 14.58L346.64 14.57Z" fill="white"/>
<path id="Vector_9" d="M356.91 12.24C355.93 12.24 355.08 12.06 354.36 11.7C353.64 11.34 353.09 10.79 352.71 10.06C352.33 9.33001 352.13 8.41001 352.13 7.31001C352.13 6.21001 352.32 5.28001 352.71 4.55001C353.09 3.82001 353.65 3.28001 354.36 2.92001C355.08 2.56001 355.93 2.38001 356.91 2.38001C357.89 2.38001 358.77 2.56001 359.48 2.92001C360.19 3.28001 360.74 3.83001 361.13 4.55001C361.51 5.28001 361.71 6.20001 361.71 7.31001C361.71 8.42001 361.52 9.33001 361.13 10.06C360.75 10.79 360.2 11.34 359.48 11.7C358.77 12.06 357.91 12.24 356.91 12.24ZM356.91 10.92C357.42 10.92 357.87 10.85 358.27 10.71C358.66 10.57 359 10.36 359.27 10.07C359.54 9.78001 359.75 9.42001 359.9 8.99001C360.05 8.56001 360.12 8.05001 360.12 7.48001V7.17001C360.12 6.58001 360.05 6.06001 359.9 5.63001C359.75 5.20001 359.55 4.83001 359.27 4.55001C359 4.26001 358.66 4.05001 358.27 3.91001C357.88 3.77001 357.42 3.70001 356.91 3.70001C356.4 3.70001 355.96 3.77001 355.57 3.91001C355.18 4.05001 354.84 4.26001 354.57 4.55001C354.3 4.84001 354.09 5.20001 353.95 5.63001C353.81 6.06001 353.74 6.58001 353.74 7.17001V7.48001C353.74 8.05001 353.81 8.56001 353.95 8.99001C354.09 9.42001 354.29 9.79001 354.57 10.07C354.84 10.36 355.18 10.57 355.57 10.71C355.96 10.85 356.41 10.92 356.91 10.92ZM354.65 1.49001C354.65 1.22001 354.71 0.97001 354.79 0.75001C354.87 0.53001 355.01 0.34001 355.19 0.21001C355.38 0.0800098 355.61 0.0100098 355.9 0.0100098C356.14 0.0100098 356.37 0.0500098 356.59 0.13001C356.81 0.21001 357.02 0.29001 357.23 0.37001C357.44 0.45001 357.64 0.49001 357.85 0.49001C357.99 0.49001 358.1 0.45001 358.17 0.38001C358.24 0.31001 358.29 0.19001 358.31 0.0200098H359.17C359.17 0.29001 359.13 0.53001 359.04 0.76001C358.95 0.99001 358.82 1.16001 358.64 1.30001C358.46 1.44001 358.22 1.51001 357.92 1.51001C357.69 1.51001 357.46 1.47001 357.25 1.38001C357.04 1.29001 356.82 1.22001 356.62 1.14001C356.42 1.06001 356.21 1.02001 355.99 1.02001C355.86 1.02001 355.76 1.06001 355.68 1.14001C355.6 1.22001 355.55 1.34001 355.53 1.51001H354.65V1.49001Z" fill="white"/>
<path id="Vector_10" d="M363.5 12.08V2.54004H370.89V3.87004H365.05V6.52004H370.28V7.85004H365.05V10.73H370.97V12.06H363.49L363.5 12.08Z" fill="white"/>
<path id="Vector_11" d="M376.4 12.24C375.88 12.24 375.38 12.19 374.9 12.08C374.42 11.97 373.99 11.8 373.62 11.57C373.25 11.33 372.96 11.03 372.74 10.67C372.52 10.31 372.42 9.87001 372.42 9.36001C372.42 9.30001 372.42 9.25001 372.42 9.20001C372.42 9.15001 372.42 9.10001 372.42 9.07001H373.98C373.98 9.07001 373.98 9.14001 373.98 9.19001C373.98 9.25001 373.98 9.29001 373.98 9.33001C373.98 9.67001 374.08 9.96001 374.29 10.21C374.49 10.45 374.78 10.63 375.14 10.75C375.51 10.87 375.93 10.93 376.4 10.93C376.66 10.93 376.91 10.91 377.15 10.88C377.39 10.85 377.61 10.8 377.81 10.73C378.01 10.66 378.18 10.57 378.33 10.47C378.48 10.36 378.59 10.24 378.68 10.09C378.76 9.94001 378.81 9.77001 378.81 9.58001C378.81 9.28001 378.72 9.04001 378.55 8.84001C378.38 8.64001 378.15 8.48001 377.86 8.35001C377.57 8.22001 377.24 8.10001 376.87 8.00001C376.5 7.90001 376.13 7.80001 375.74 7.69001C375.35 7.59001 374.97 7.47001 374.61 7.33001C374.25 7.19001 373.92 7.02001 373.62 6.82001C373.33 6.62001 373.1 6.37001 372.93 6.07001C372.76 5.77001 372.67 5.40001 372.67 4.97001C372.67 4.54001 372.76 4.18001 372.93 3.86001C373.11 3.54001 373.36 3.26001 373.69 3.05001C374.02 2.83001 374.42 2.67001 374.88 2.56001C375.34 2.45001 375.87 2.39001 376.45 2.39001C376.95 2.39001 377.42 2.44001 377.87 2.55001C378.32 2.66001 378.7 2.82001 379.04 3.04001C379.37 3.26001 379.64 3.55001 379.82 3.89001C380.01 4.23001 380.1 4.64001 380.1 5.11001V5.28001H378.56V5.10001C378.56 4.80001 378.47 4.55001 378.3 4.35001C378.12 4.15001 377.88 3.99001 377.56 3.88001C377.24 3.77001 376.88 3.71001 376.46 3.71001C375.97 3.71001 375.56 3.76001 375.22 3.86001C374.89 3.96001 374.63 4.09001 374.46 4.26001C374.29 4.43001 374.2 4.64001 374.2 4.88001C374.2 5.15001 374.29 5.37001 374.46 5.54001C374.64 5.71001 374.87 5.86001 375.16 5.98001C375.45 6.10001 375.78 6.21001 376.15 6.31001C376.52 6.41001 376.89 6.51001 377.28 6.62001C377.67 6.73001 378.04 6.85001 378.41 6.99001C378.78 7.13001 379.1 7.30001 379.4 7.50001C379.69 7.70001 379.93 7.96001 380.1 8.26001C380.28 8.56001 380.36 8.93001 380.36 9.36001C380.36 10.05 380.19 10.6 379.85 11.04C379.51 11.47 379.04 11.78 378.44 11.98C377.84 12.18 377.16 12.27 376.39 12.27L376.4 12.24Z" fill="white"/>
<path id="Vector_12" d="M304.99 26.5V16.97H306.55V25.16H311.3V26.51H304.99V26.5Z" fill="white"/>
<path id="Vector_13" d="M313.81 26.5V18.3H310.66V16.97H318.55V18.3H315.37V26.5H313.81Z" fill="white"/>
<path id="Vector_14" d="M319.98 26.5V16.97H323.66C324.64 16.97 325.48 17.14 326.18 17.48C326.88 17.82 327.41 18.34 327.78 19.04C328.16 19.74 328.34 20.64 328.34 21.74C328.34 22.84 328.15 23.73 327.78 24.44C327.41 25.14 326.87 25.67 326.18 26C325.49 26.34 324.65 26.51 323.66 26.51H319.98V26.5ZM321.54 25.16H323.65C324.14 25.16 324.58 25.09 324.96 24.97C325.34 24.85 325.67 24.64 325.93 24.37C326.19 24.1 326.39 23.76 326.53 23.35C326.66 22.94 326.73 22.45 326.73 21.88V21.59C326.73 21.02 326.66 20.52 326.53 20.11C326.4 19.7 326.2 19.36 325.93 19.09C325.67 18.82 325.34 18.62 324.96 18.49C324.58 18.36 324.14 18.3 323.65 18.3H321.54V25.17V25.16Z" fill="white"/>
<path id="Vector_15" d="M328.91 26.5L332.65 16.97H334.64L338.39 26.5H336.72L335.87 24.29H331.35L330.5 26.5H328.9H328.91ZM331.85 22.97H335.35L334.28 20.18C334.25 20.1 334.21 19.98 334.15 19.83C334.09 19.68 334.04 19.52 333.98 19.34C333.92 19.16 333.86 18.99 333.8 18.8C333.74 18.62 333.69 18.46 333.64 18.31H333.56C333.5 18.49 333.43 18.69 333.35 18.94C333.27 19.19 333.19 19.41 333.11 19.63C333.03 19.85 332.96 20.03 332.91 20.17L331.85 22.96V22.97Z" fill="white"/>
</g>
<g id="Group_3">
<path id="Vector_16" d="M397.33 48.86H366.57L351.19 22.22L335.81 48.86H305.05L320.43 75.5L305.05 102.14H335.81L351.19 128.78L366.57 102.14H397.33L381.95 75.5L397.33 48.86ZM386.51 55.11L378.34 69.26L370.17 55.11H386.51ZM351.19 34.71L359.36 48.86H343.02L351.19 34.71ZM315.87 55.11H332.21L324.04 69.26L315.87 55.11ZM315.87 95.89L324.04 81.74L332.21 95.89H315.87ZM351.19 116.29L343.02 102.14H359.36L351.19 116.29ZM362.96 95.89H339.41L327.64 75.5L339.41 55.11H362.96L374.73 75.5L362.96 95.89ZM386.51 95.89H370.17L378.34 81.74L386.51 95.89Z" fill="white"/>
<path id="Vector_17" d="M368.9 69.34C368.87 69.08 368.82 68.82 368.77 68.58L368.73 68.35C368.7 68.26 368.69 68.17 368.67 68.08C368.58 67.71 368.46 67.37 368.36 67.07C368.32 67.01 368.28 66.95 368.23 66.91C368.22 66.91 368.22 66.9 368.2 66.9C368.19 66.89 368.17 66.89 368.15 66.89C368.11 66.86 368.06 66.84 367.99 66.84C367.92 66.84 367.85 66.87 367.78 66.92C367.74 66.93 367.73 66.98 367.72 67.01C367.69 67.04 367.66 67.06 367.64 67.1C367.64 67.14 367.63 67.16 367.61 67.2C367.53 67.43 367.44 67.65 367.35 67.86C367.3 67.95 367.26 68.04 367.21 68.12C367.13 68.26 367.07 68.39 366.98 68.51C366.93 68.59 366.88 68.67 366.83 68.74C366.75 68.86 366.65 68.96 366.56 69.05C366.52 69.11 366.47 69.17 366.42 69.22C366.29 69.35 366.15 69.45 366.02 69.56C365.94 69.61 365.85 69.66 365.77 69.72C365.71 69.76 365.64 69.8 365.56 69.84C365.47 69.89 365.39 69.93 365.3 69.97C365.25 70 365.18 70.01 365.13 70.03C365.04 70.07 364.95 70.09 364.86 70.12L364.63 69.75C364.69 69.7 364.73 69.66 364.78 69.61C364.91 69.49 365.04 69.36 365.15 69.25C365.37 69.03 365.56 68.81 365.74 68.58C365.8 68.5 365.86 68.42 365.91 68.35C366.04 68.16 366.17 67.98 366.27 67.78C366.31 67.72 366.35 67.64 366.39 67.56C366.51 67.33 366.6 67.08 366.66 66.84C366.67 66.78 366.69 66.7 366.7 66.62C366.74 66.43 366.76 66.23 366.76 66.03C366.77 65.97 366.77 65.89 366.77 65.81C366.76 65.6 366.74 65.41 366.71 65.19C366.7 65.15 366.68 65.11 366.67 65.07C366.66 64.99 366.64 64.93 366.62 64.86C366.56 64.59 366.45 64.3 366.32 64.02C366.31 64.01 366.31 63.99 366.29 63.98C366.15 63.67 365.97 63.35 365.75 63C365.7 62.94 365.63 62.9 365.57 62.87H365.53C365.53 62.87 365.48 62.84 365.45 62.84C365.33 62.84 365.23 62.9 365.15 63C365.14 63 365.14 63.01 365.14 63.03C365.1 63.08 365.08 63.15 365.08 63.21V63.24C365.09 63.54 365.07 63.81 365.03 64.05C365.02 64.1 365.02 64.15 365 64.19C364.96 64.42 364.9 64.63 364.83 64.81C364.8 64.86 364.78 64.9 364.77 64.95C364.71 65.08 364.64 65.21 364.56 65.32C364.53 65.37 364.5 65.42 364.46 65.48C364.37 65.62 364.25 65.75 364.15 65.85C364.21 65.67 364.28 65.46 364.33 65.24C364.34 65.21 364.34 65.2 364.36 65.18V65.15C364.4 64.98 364.42 64.79 364.45 64.59C364.45 64.55 364.45 64.53 364.46 64.49C364.49 64.08 364.47 63.61 364.38 63.13C364.38 63.09 364.37 63.07 364.35 63.03C364.3 62.78 364.23 62.53 364.13 62.27C363.91 61.69 363.6 61.21 363.24 60.82C363.02 60.59 362.8 60.38 362.56 60.21L362.52 60.17C362.06 59.85 361.55 59.6 361.06 59.43C361.03 59.42 361 59.4 360.97 59.4C360.74 59.32 360.52 59.26 360.3 59.21C360.26 59.21 360.24 59.2 360.21 59.2C360 59.16 359.81 59.12 359.64 59.1H359.58C359.4 59.07 359.23 59.06 359.09 59.05H359.01C358.87 59.04 358.75 59.04 358.66 59.04H358.48C358.48 59.04 358.45 59.04 358.44 59.05C358.4 59.05 358.39 59.08 358.35 59.09C358.32 59.1 358.29 59.1 358.26 59.13C358.23 59.16 358.22 59.19 358.2 59.23C358.19 59.26 358.16 59.27 358.15 59.31C358.11 59.47 358.16 59.62 358.29 59.71C358.59 59.94 358.85 60.18 359.08 60.42C359.16 60.5 359.21 60.58 359.27 60.64C359.41 60.8 359.53 60.95 359.64 61.12L359.92 61.62H359.96C360.02 61.74 360.09 61.85 360.14 61.96C360.22 62.12 360.29 62.24 360.35 62.4C360.43 62.58 360.47 62.75 360.52 62.93C360.57 63.12 360.62 63.3 360.66 63.5C360.7 63.73 360.74 63.97 360.75 64.2C360.76 64.33 360.75 64.47 360.75 64.6C360.75 64.78 360.75 64.96 360.74 65.13C360.73 65.29 360.7 65.43 360.69 65.57C360.66 65.74 360.64 65.89 360.6 66.06C360.56 66.2 360.52 66.36 360.48 66.5C360.44 66.66 360.39 66.8 360.34 66.94C360.29 67.1 360.22 67.25 360.16 67.41C360.11 67.53 360.04 67.64 359.99 67.76C359.9 67.94 359.81 68.11 359.72 68.26C359.63 68.4 359.55 68.53 359.46 68.66C359.38 68.78 359.31 68.89 359.23 69C359.06 69.21 358.88 69.41 358.7 69.61C358.65 69.67 358.58 69.73 358.52 69.79C358.37 69.95 358.2 70.09 358.03 70.22C357.97 70.27 357.89 70.34 357.81 70.39C357.62 70.53 357.42 70.66 357.22 70.78C357.17 70.81 357.12 70.84 357.06 70.87C356.83 71 356.58 71.1 356.32 71.19C356.2 71.23 356.07 71.27 355.96 71.29C355.81 71.34 355.66 71.37 355.52 71.41C355.38 71.44 355.22 71.46 355.08 71.47C354.96 71.48 354.86 71.5 354.74 71.51H354.69C354.43 71.51 353.31 71.48 352.87 70.9H352.86C352.86 70.9 352.86 70.86 352.85 70.85H352.84C352.83 70.8 352.8 70.76 352.78 70.71C352.78 70.7 352.78 70.68 352.77 70.68C352.72 70.54 352.64 70.34 352.58 70.11C352.48 69.76 352.4 69.33 352.41 68.84C352.41 68.68 352.42 68.53 352.45 68.37C352.45 68.34 352.45 68.32 352.46 68.31C352.49 68.14 352.52 67.97 352.58 67.81C352.59 67.78 352.59 67.77 352.61 67.76C352.66 67.62 352.71 67.46 352.79 67.32C352.82 67.27 352.85 67.2 352.88 67.15C352.94 67.03 353.01 66.92 353.09 66.81C353.14 66.75 353.18 66.68 353.22 66.63C353.34 66.49 353.45 66.35 353.59 66.2C353.6 66.17 353.63 66.15 353.64 66.12C353.81 65.96 353.94 65.81 354.04 65.67C354.08 65.63 354.09 65.59 354.12 65.57C354.2 65.45 354.28 65.34 354.33 65.23C354.34 65.22 354.36 65.2 354.37 65.18C354.38 65.17 354.38 65.15 354.4 65.14C354.46 65 354.53 64.87 354.57 64.74C354.2 65 353.76 65.11 353.28 65.18C352.32 65.32 351.24 65.23 350.33 65.4C350.29 65.41 350.25 65.41 350.21 65.43C350.04 65.47 349.89 65.52 349.73 65.59C349.68 65.62 349.64 65.63 349.59 65.65C349.41 65.74 349.24 65.84 349.1 65.99C349.09 66 349.09 66.02 349.09 66.03C348.81 66.51 349.08 66.59 348.91 66.9C348.9 66.94 348.86 66.96 348.83 66.99C348.83 66.99 348.82 67 348.8 67.02C348.8 67.02 348.71 67.06 348.66 67.07C348.09 67.17 347.72 67.44 347.46 67.75C347.3 67.94 347.19 68.14 347.11 68.33C347.28 68.25 347.47 68.19 347.67 68.14C347.75 68.11 347.83 68.1 347.9 68.09C348.04 68.05 348.17 68.04 348.31 68.04C348.37 68.03 348.45 68.01 348.52 68.01C348.69 68.02 348.84 68.04 349 68.07C349.01 68.08 349.03 68.08 349.04 68.08C349.22 68.13 349.36 68.22 349.48 68.31C349.51 68.32 349.53 68.35 349.56 68.36C349.68 68.46 349.77 68.58 349.82 68.7C349.83 68.71 349.83 68.73 349.83 68.74C349.89 68.87 349.95 69 349.96 69.15C349.96 69.15 349.97 69.15 349.97 69.16C349.98 69.32 350 69.47 349.98 69.63C349.98 69.63 349.98 69.64 349.97 69.66C349.97 69.8 349.94 69.93 349.91 70.06C349.91 70.07 349.91 70.1 349.9 70.11C349.9 70.12 349.9 70.14 349.89 70.15C349.86 70.25 349.83 70.37 349.79 70.47C349.78 70.5 349.76 70.53 349.74 70.56C349.71 70.64 349.68 70.7 349.64 70.75C349.63 70.78 349.61 70.8 349.6 70.83C349.55 70.89 349.5 70.93 349.46 70.96C349.46 70.96 349.45 70.99 349.43 71C349.03 71.35 347.88 71.48 347.69 71.5H347.66C347.53 71.49 347.4 71.47 347.29 71.46C347.19 71.45 347.08 71.43 346.98 71.42C346.72 71.37 346.46 71.32 346.22 71.23C346.21 71.23 346.19 71.23 346.18 71.22C345.92 71.14 345.69 71.03 345.44 70.91C345.35 70.86 345.25 70.81 345.14 70.74C345 70.65 344.84 70.56 344.7 70.46C344.57 70.37 344.44 70.28 344.31 70.18C344.17 70.06 344.04 69.95 343.91 69.83C343.83 69.75 343.75 69.69 343.69 69.62C343.48 69.41 343.3 69.19 343.12 68.96C343.04 68.86 342.98 68.74 342.9 68.64C342.82 68.52 342.75 68.41 342.67 68.28C342.57 68.11 342.48 67.93 342.39 67.75C342.34 67.65 342.29 67.54 342.24 67.43C342.18 67.27 342.11 67.11 342.05 66.94C342 66.81 341.96 66.67 341.92 66.53C341.87 66.37 341.83 66.23 341.79 66.08C341.76 65.91 341.74 65.74 341.71 65.59C341.68 65.45 341.66 65.31 341.66 65.16C341.63 64.97 341.63 64.77 341.63 64.58C341.64 64.46 341.63 64.35 341.63 64.23C341.66 63.92 341.69 63.61 341.76 63.31C341.77 63.26 341.79 63.22 341.8 63.18C341.86 62.92 341.94 62.65 342.05 62.39C342.09 62.29 342.15 62.18 342.19 62.08C342.27 61.94 342.35 61.78 342.42 61.64H342.46L342.73 61.16C342.85 60.99 342.98 60.82 343.12 60.67C343.17 60.61 343.24 60.53 343.29 60.46C343.54 60.2 343.81 59.96 344.12 59.72C344.17 59.68 344.2 59.63 344.22 59.58C344.26 59.5 344.28 59.41 344.26 59.32C344.23 59.24 344.2 59.18 344.13 59.14C344.1 59.11 344.08 59.11 344.04 59.1C344.01 59.09 343.99 59.06 343.95 59.06C343.95 59.05 343.94 59.05 343.92 59.05H343.74C343.65 59.05 343.53 59.05 343.39 59.06H343.33C343.17 59.07 343.01 59.09 342.81 59.11H342.78C342.6 59.14 342.39 59.17 342.19 59.21C342.15 59.21 342.14 59.22 342.1 59.22C341.89 59.27 341.66 59.34 341.43 59.4C341.4 59.41 341.37 59.43 341.33 59.44C340.85 59.61 340.37 59.84 339.92 60.15C339.88 60.18 339.84 60.2 339.8 60.24C339.58 60.4 339.39 60.58 339.19 60.77C339.15 60.81 339.11 60.86 339.09 60.9C338.91 61.09 338.75 61.31 338.61 61.56C338.58 61.59 338.57 61.6 338.56 61.62C338.55 61.63 338.55 61.65 338.55 61.65C338.43 61.84 338.34 62.05 338.25 62.27C338.16 62.52 338.1 62.76 338.04 62.99C338.03 63.05 338.01 63.11 338 63.16C337.96 63.39 337.94 63.61 337.92 63.83V63.87C337.91 64.1 337.92 64.31 337.93 64.52C337.93 64.53 337.94 64.56 337.94 64.57C337.98 65.04 338.08 65.45 338.21 65.8C338.22 65.81 338.22 65.84 338.22 65.85C338.12 65.73 338 65.6 337.9 65.46C337.87 65.42 337.86 65.38 337.84 65.34C337.75 65.21 337.67 65.07 337.61 64.91C337.6 64.87 337.57 64.85 337.56 64.81C337.5 64.63 337.44 64.42 337.39 64.22C337.38 64.14 337.36 64.06 337.36 63.99C337.32 63.8 337.31 63.58 337.32 63.34C337.32 63.3 337.31 63.26 337.31 63.22C337.32 63.13 337.28 63.06 337.25 63.01C337.25 63 337.24 62.98 337.24 62.98C337.16 62.89 337.05 62.82 336.93 62.82C336.9 62.82 336.88 62.83 336.85 62.85H336.82C336.76 62.88 336.69 62.91 336.64 62.98C336.64 62.98 336.63 63.03 336.61 63.04C336.42 63.32 336.27 63.6 336.13 63.88C336.1 63.93 336.08 63.98 336.05 64.04C335.92 64.31 335.83 64.57 335.77 64.83C335.74 64.91 335.73 64.97 335.72 65.04C335.71 65.08 335.69 65.13 335.68 65.17C335.64 65.39 335.62 65.61 335.62 65.82V65.99C335.63 66.21 335.65 66.43 335.7 66.65C335.71 66.7 335.73 66.77 335.74 66.83C335.8 67.08 335.9 67.32 336.01 67.58C336.05 67.64 336.09 67.71 336.13 67.77C336.25 67.98 336.38 68.18 336.53 68.39C336.57 68.45 336.59 68.51 336.65 68.56C336.84 68.82 337.08 69.08 337.33 69.34C337.38 69.38 337.42 69.43 337.47 69.47C337.57 69.57 337.66 69.66 337.77 69.77C337.94 69.91 338.13 70.07 338.31 70.21C338.35 70.24 338.36 70.26 338.4 70.3C338.36 70.29 338.31 70.29 338.27 70.27C337.9 70.23 337.47 70.14 337.03 69.95C336.99 69.92 336.95 69.91 336.91 69.89C336.79 69.84 336.68 69.77 336.55 69.7C336.51 69.66 336.46 69.64 336.42 69.61C336.28 69.51 336.12 69.39 335.98 69.25C335.94 69.21 335.92 69.17 335.88 69.12C335.78 69.02 335.67 68.9 335.57 68.77C335.52 68.71 335.48 68.63 335.43 68.55C335.34 68.42 335.26 68.29 335.18 68.14C335.14 68.06 335.09 68 335.06 67.91C334.94 67.68 334.84 67.42 334.75 67.13C334.72 67.05 334.69 66.99 334.62 66.95C334.57 66.91 334.52 66.9 334.45 66.9C334.44 66.89 334.42 66.89 334.41 66.89H334.4C334.35 66.88 334.28 66.9 334.23 66.93C334.22 66.94 334.2 66.93 334.19 66.94C334.16 66.95 334.16 66.99 334.14 67C334.11 67.04 334.08 67.06 334.05 67.1C334 67.26 333.95 67.41 333.88 67.58C333.87 67.64 333.85 67.71 333.83 67.77C333.8 67.87 333.78 67.96 333.75 68.05C333.65 68.46 333.56 68.92 333.5 69.37C333.45 69.89 333.45 70.4 333.51 70.92H333.52C333.56 71.31 333.65 71.68 333.79 72.04C333.8 72.07 333.82 72.09 333.83 72.13C333.88 72.27 333.95 72.4 334.02 72.53C334.05 72.57 334.06 72.61 334.08 72.63C334.17 72.79 334.27 72.94 334.39 73.08L334.44 73.13C334.54 73.25 334.66 73.36 334.78 73.47C334.82 73.51 334.87 73.55 334.91 73.59C335.04 73.68 335.17 73.77 335.31 73.85C335.35 73.88 335.37 73.9 335.41 73.93C335.59 74.02 335.78 74.11 335.99 74.19C336.04 74.2 336.09 74.23 336.15 74.24C336.33 74.29 336.51 74.34 336.72 74.4C336.78 74.41 336.84 74.43 336.9 74.44C337.16 74.48 337.43 74.52 337.73 74.54C337.7 74.55 337.68 74.55 337.65 74.57C337.48 74.63 337.3 74.69 337.11 74.73C337.08 74.74 337.06 74.74 337.03 74.74C336.82 74.79 336.59 74.82 336.35 74.82H336.05C335.95 74.81 335.86 74.81 335.75 74.79C335.67 74.78 335.61 74.76 335.53 74.75C335.44 74.74 335.36 74.71 335.27 74.7C335.14 74.66 335.01 74.62 334.88 74.58C334.84 74.55 334.8 74.55 334.75 74.53C334.58 74.47 334.4 74.39 334.21 74.3C334.16 74.26 334.11 74.25 334.04 74.25C334.04 74.25 334.03 74.26 334.01 74.26C333.96 74.26 333.92 74.29 333.87 74.31C333.84 74.32 333.82 74.32 333.81 74.32C333.76 74.37 333.72 74.44 333.69 74.5C333.66 74.56 333.66 74.63 333.68 74.71C333.73 74.9 333.81 75.1 333.89 75.29C333.9 75.32 333.9 75.34 333.92 75.35C334 75.56 334.1 75.75 334.2 75.94C334.21 75.95 334.23 75.98 334.23 75.99C334.33 76.17 334.45 76.34 334.58 76.52C334.61 76.55 334.62 76.57 334.63 76.58C334.76 76.76 334.91 76.92 335.07 77.07L335.19 77.19C335.34 77.33 335.51 77.47 335.69 77.6C335.72 77.61 335.74 77.63 335.77 77.65C335.95 77.77 336.14 77.86 336.34 77.95C336.4 77.99 336.46 78.01 336.52 78.04C336.74 78.12 336.97 78.2 337.22 78.25C337.27 78.26 337.34 78.26 337.39 78.28C337.61 78.32 337.85 78.34 338.1 78.34C338.14 78.35 338.18 78.35 338.22 78.35H338.3C338.35 78.35 338.4 78.35 338.46 78.34H338.68C338.68 78.34 338.74 78.33 338.78 78.31C338.97 78.3 339.17 78.27 339.37 78.22C339.45 78.21 339.51 78.19 339.59 78.18C339.84 78.13 340.09 78.05 340.37 77.96C340.4 77.95 340.42 77.95 340.45 77.93C340.44 77.94 340.42 77.96 340.42 77.96C340.25 78.14 340.06 78.31 339.84 78.46C339.81 78.46 339.8 78.47 339.79 78.49C339.57 78.63 339.34 78.76 339.08 78.86C339.03 78.87 338.98 78.9 338.92 78.91C338.61 79.01 338.27 79.08 337.9 79.08C337.77 79.08 337.65 79.08 337.51 79.07H337.5C337.5 79.07 337.5 79.08 337.49 79.08C337.46 79.08 337.44 79.09 337.41 79.09C337.37 79.1 337.33 79.1 337.29 79.12C337.24 79.16 337.2 79.2 337.17 79.26C337.16 79.26 337.14 79.27 337.14 79.27C337.11 79.32 337.1 79.37 337.11 79.44C337.24 80 338.93 81.2 341.09 80.89C341.13 80.89 341.17 80.88 341.21 80.88C341.46 80.84 341.7 80.79 341.95 80.7C342.14 80.65 342.31 80.58 342.47 80.52C342.78 80.4 343.05 80.27 343.3 80.16C343.62 79.99 343.88 79.81 344.1 79.64C343.87 80.21 343.4 80.79 342.59 81.1C342.45 81.15 342.32 81.22 342.15 81.26C342.1 81.27 342.06 81.3 342.02 81.32C341.92 81.38 341.84 81.48 341.84 81.6C341.84 81.63 341.87 81.66 341.88 81.69C341.91 81.82 341.98 81.94 342.11 81.96H342.12C342.22 82 342.35 82.04 342.49 82.06C342.53 82.07 342.57 82.07 342.62 82.09C342.72 82.1 342.83 82.12 342.94 82.13C343.02 82.14 343.09 82.14 343.19 82.16C343.27 82.16 343.34 82.17 343.44 82.17C343.56 82.17 343.66 82.18 343.78 82.18H343.81C343.81 82.18 343.84 82.17 343.86 82.17C344.08 82.17 344.31 82.17 344.54 82.14C344.59 82.14 344.66 82.13 344.72 82.13C344.91 82.1 345.09 82.08 345.29 82.04C345.37 82.03 345.45 82.01 345.52 81.99C345.69 81.95 345.84 81.91 346.01 81.85C346.09 81.82 346.17 81.81 346.24 81.79C346.43 81.71 346.61 81.61 346.77 81.51C346.8 81.5 346.82 81.5 346.83 81.48L346.33 82.26L343.1 87.32C343.04 87.41 343.01 87.51 342.98 87.6C342.93 87.78 342.9 87.96 342.94 88.16C342.95 88.2 342.98 88.24 342.99 88.28C343.02 88.36 343.04 88.44 343.07 88.49C343.11 88.54 343.13 88.57 343.17 88.61C343.21 88.67 343.25 88.71 343.3 88.77C343.35 88.8 343.39 88.82 343.43 88.85C343.49 88.89 343.55 88.91 343.61 88.94C343.66 88.95 343.7 88.98 343.75 88.99C343.81 89 343.88 89.02 343.94 89.02C343.98 89.02 344 89.03 344.04 89.03H344.1C344.1 89.03 344.15 89.02 344.18 89.02C344.26 89.01 344.32 88.99 344.4 88.97C344.43 88.96 344.45 88.96 344.48 88.94C344.54 88.9 344.61 88.86 344.67 88.82C344.7 88.81 344.72 88.79 344.73 88.77C344.81 88.71 344.87 88.63 344.92 88.54C344.92 88.54 344.924 88.5366 344.93 88.53L348.39 83.13L347.28 87.43L346.17 91.74V91.78C346.11 92.05 346.14 92.34 346.29 92.58C346.3 92.59 346.32 92.61 346.32 92.62C346.37 92.7 346.42 92.76 346.49 92.81C346.53 92.85 346.57 92.89 346.61 92.91C346.65 92.94 346.67 92.96 346.71 92.97C346.77 93 346.84 93.02 346.9 93.05C346.91 93.05 346.93 93.06 346.95 93.06C347.03 93.09 347.11 93.1 347.2 93.1C347.21 93.1 347.23 93.11 347.24 93.11C347.25 93.11 347.28 93.1 347.29 93.1C347.38 93.1 347.46 93.09 347.54 93.06C347.57 93.05 347.6 93.05 347.64 93.03C347.72 93 347.78 92.97 347.85 92.93C347.89 92.9 347.91 92.89 347.95 92.87C348.01 92.82 348.07 92.77 348.12 92.7C348.15 92.67 348.17 92.65 348.18 92.62C348.23 92.54 348.27 92.45 348.3 92.36C348.31 92.33 348.33 92.31 348.34 92.27L348.42 91.97L349.34 88.42L350.09 85.54V93.46C350.09 94.07 350.58 94.57 351.19 94.57C351.66 94.57 352.06 94.29 352.22 93.89C352.27 93.76 352.3 93.61 352.3 93.45V85.51L352.93 87.95L353.06 88.43L353.12 88.7L354.04 92.29C354.08 92.42 354.13 92.54 354.2 92.63C354.21 92.66 354.24 92.68 354.26 92.71C354.31 92.77 354.36 92.84 354.43 92.89C354.47 92.9 354.49 92.92 354.52 92.94C354.6 92.98 354.66 93.02 354.74 93.04C354.78 93.05 354.8 93.05 354.84 93.07C354.92 93.1 355 93.11 355.09 93.11C355.1 93.11 355.12 93.12 355.14 93.12C355.15 93.12 355.17 93.11 355.18 93.11C355.27 93.11 355.35 93.1 355.44 93.07C355.45 93.07 355.45 93.06 355.47 93.06C355.55 93.05 355.61 93.02 355.68 92.98C355.71 92.97 355.73 92.94 355.76 92.93C355.81 92.89 355.86 92.87 355.92 92.81C355.95 92.77 355.97 92.73 356.01 92.69C356.04 92.65 356.07 92.61 356.1 92.57C356.24 92.31 356.29 92.01 356.2 91.73L354.49 85.05L354 83.13L356.29 86.71L357.39 88.43L357.44 88.52H357.45C357.54 88.68 357.67 88.78 357.8 88.87C357.83 88.88 357.85 88.9 357.89 88.91C358.02 88.97 358.16 89.01 358.32 89.01C358.33 89.01 358.35 89.02 358.36 89.02C358.41 89.02 358.45 89.01 358.5 89.01C358.54 89 358.59 89 358.63 88.98C358.69 88.97 358.76 88.94 358.81 88.92C358.86 88.91 358.91 88.88 358.96 88.86C359 88.82 359.05 88.8 359.09 88.77C359.15 88.72 359.19 88.67 359.24 88.61C359.27 88.57 359.29 88.55 359.32 88.51C359.37 88.42 359.41 88.33 359.42 88.23C359.43 88.2 359.45 88.19 359.45 88.18C359.53 87.87 359.46 87.59 359.31 87.34L358.91 86.71L358.1 85.44L355.59 81.51C355.59 81.51 355.63 81.52 355.64 81.54C355.81 81.64 355.98 81.73 356.17 81.81C356.26 81.85 356.36 81.87 356.45 81.9C356.58 81.95 356.71 81.99 356.85 82.02C356.98 82.06 357.1 82.07 357.22 82.1C357.34 82.13 357.44 82.14 357.54 82.15C357.7 82.16 357.84 82.19 357.99 82.19C358.07 82.2 358.15 82.2 358.22 82.2C358.34 82.21 358.47 82.23 358.58 82.23C358.85 82.23 359.1 82.2 359.34 82.18C359.52 82.17 359.69 82.14 359.83 82.12C359.84 82.12 359.87 82.12 359.88 82.11C360.01 82.08 360.13 82.06 360.23 82.02C360.24 82.02 360.27 82.02 360.28 82.01C360.34 82 360.4 81.95 360.43 81.89C360.49 81.83 360.55 81.73 360.53 81.64C360.52 81.47 360.41 81.32 360.25 81.29C359.11 81.06 358.57 80.36 358.29 79.69C358.73 80.04 359.39 80.4 360.33 80.71C360.37 80.71 360.39 80.72 360.43 80.74C360.66 80.82 360.9 80.87 361.13 80.91C361.19 80.92 361.25 80.94 361.31 80.94C362.92 81.17 364.28 80.55 364.9 80C364.91 79.99 364.93 79.97 364.93 79.96C365.02 79.88 365.08 79.82 365.14 79.74C365.15 79.73 365.17 79.73 365.17 79.71C365.22 79.65 365.25 79.58 365.26 79.52C365.27 79.51 365.27 79.49 365.27 79.47C365.27 79.43 365.27 79.39 365.24 79.37C365.24 79.36 365.25 79.34 365.24 79.33C365.2 79.27 365.15 79.21 365.1 79.17C365.06 79.16 365.01 79.14 364.96 79.14C364.95 79.14 364.92 79.13 364.9 79.13C364.89 79.13 364.89 79.12 364.89 79.12C364.75 79.13 364.62 79.13 364.49 79.13C364.32 79.13 364.15 79.12 364 79.09C363.94 79.08 363.88 79.06 363.82 79.05C363.7 79.02 363.6 79 363.48 78.97C363.43 78.94 363.38 78.92 363.31 78.91C363.06 78.81 362.83 78.69 362.63 78.55C362.6 78.54 362.58 78.52 362.57 78.5C362.34 78.34 362.14 78.16 361.96 77.98C362.26 78.08 362.53 78.16 362.8 78.23C362.89 78.24 362.97 78.26 363.05 78.28C363.24 78.31 363.42 78.34 363.61 78.36C363.65 78.36 363.69 78.37 363.73 78.39C363.83 78.39 363.94 78.39 364.03 78.4H364.18C364.23 78.4 364.27 78.39 364.32 78.39C364.55 78.39 364.77 78.36 364.98 78.33C365.04 78.32 365.12 78.32 365.19 78.3C365.42 78.25 365.65 78.17 365.86 78.09C365.92 78.06 366 78.03 366.07 78C366.25 77.92 366.43 77.82 366.6 77.72C366.64 77.69 366.69 77.67 366.73 77.63C366.9 77.51 367.05 77.4 367.2 77.26C367.25 77.22 367.3 77.17 367.34 77.13C367.5 76.97 367.64 76.82 367.77 76.65C367.8 76.62 367.82 76.59 367.85 76.55C367.97 76.39 368.07 76.23 368.17 76.06C368.18 76.03 368.2 76.02 368.21 76C368.31 75.81 368.42 75.6 368.49 75.41C368.5 75.4 368.5 75.38 368.5 75.36C368.59 75.17 368.65 74.96 368.71 74.77C368.72 74.76 368.71 74.73 368.71 74.72C368.72 74.67 368.72 74.63 368.71 74.58C368.7 74.57 368.7 74.54 368.68 74.53C368.65 74.49 368.63 74.45 368.6 74.43C368.59 74.42 368.57 74.4 368.55 74.39C368.51 74.36 368.47 74.35 368.42 74.34C368.41 74.34 368.39 74.33 368.38 74.33C368.37 74.33 368.35 74.32 368.34 74.32C368.29 74.32 368.24 74.33 368.17 74.37C368.04 74.43 367.91 74.5 367.78 74.55C367.12 74.82 366.53 74.91 366 74.9C365.78 74.89 365.57 74.86 365.38 74.84C365.33 74.83 365.28 74.81 365.23 74.8C365.04 74.75 364.86 74.7 364.69 74.63C364.68 74.62 364.66 74.62 364.66 74.62C364.96 74.61 365.24 74.56 365.51 74.52C365.55 74.51 365.59 74.49 365.63 74.49C365.86 74.44 366.08 74.39 366.29 74.31C366.32 74.3 366.34 74.3 366.35 74.28C366.58 74.2 366.8 74.11 367 74C367 74 367.01 74 367.01 73.99C367.19 73.9 367.35 73.78 367.5 73.67C367.53 73.64 367.55 73.62 367.58 73.59C367.72 73.47 367.85 73.34 367.97 73.22L368 73.19C368.12 73.05 368.23 72.89 368.32 72.74C368.33 72.7 368.36 72.68 368.37 72.64C368.45 72.51 368.51 72.38 368.56 72.24C368.57 72.21 368.6 72.18 368.61 72.14C368.74 71.79 368.83 71.43 368.88 71.05V70.99C368.94 70.49 368.94 69.97 368.91 69.47L368.9 69.34Z" fill="white"/>
</g>
</g>
</svg>
