<svg width="3664" height="988" viewBox="0 0 3664 988" fill="none" xmlns="http://www.w3.org/2000/svg">
<g id="RMJ - LOGO - BRANCA">
<g id="Group">
<path id="Vector" d="M3030.12 107.961C3025.57 107.961 3021.13 107.478 3016.87 106.511C3012.62 105.544 3008.85 104.095 3005.56 101.968C3002.28 99.8418 2999.77 97.232 2997.83 94.0424C2995.9 90.8528 2995.03 86.9865 2995.03 82.4437C2995.03 81.9604 2995.03 81.4772 2995.03 80.9939C2995.03 80.5106 2995.03 80.124 2995.03 79.834H3008.75C3008.75 79.834 3008.75 80.414 3008.75 80.8972C3008.75 81.3805 3008.75 81.7671 3008.75 82.1538C3008.75 85.1501 3009.62 87.7598 3011.46 89.8862C3013.3 92.0126 3015.81 93.5591 3019 94.6223C3022.19 95.6856 3025.96 96.2655 3030.12 96.2655C3032.44 96.2655 3034.56 96.1688 3036.69 95.8789C3038.81 95.5889 3040.75 95.1056 3042.49 94.5257C3044.23 93.9457 3045.77 93.1725 3047.13 92.2059C3048.38 91.2394 3049.45 90.1762 3050.22 88.823C3050.99 87.5665 3051.28 86.02 3051.28 84.2802C3051.28 81.6705 3050.51 79.5441 3049.06 77.8043C3047.61 76.0645 3045.48 74.6146 3042.97 73.5514C3040.36 72.3915 3037.46 71.425 3034.27 70.4584C3031.08 69.4919 3027.7 68.622 3024.32 67.7521C3020.84 66.8822 3017.55 65.819 3014.36 64.5624C3011.17 63.3059 3008.27 61.8561 3005.66 60.1163C3003.05 58.3765 3001.02 56.1534 2999.57 53.5437C2998.12 50.934 2997.35 47.6477 2997.35 43.7815C2997.35 39.9152 2998.12 36.8223 2999.67 34.0192C3001.22 31.1196 3003.44 28.7998 3006.43 26.8667C3009.33 24.9336 3012.91 23.4838 3016.97 22.5172C3021.03 21.5507 3025.67 21.0674 3030.79 21.0674C3035.24 21.0674 3039.39 21.5507 3043.26 22.5172C3047.22 23.4838 3050.61 24.9336 3053.6 26.8667C3056.5 28.7998 3058.82 31.3129 3060.56 34.3092C3062.2 37.3055 3063.07 40.8818 3063.07 45.1346V46.5845H3049.45V45.038C3049.45 42.4283 3048.67 40.2052 3047.13 38.4654C3045.58 36.6289 3043.45 35.2758 3040.65 34.3092C3037.85 33.3427 3034.66 32.8594 3030.99 32.8594C3026.64 32.8594 3023.06 33.246 3020.06 34.1159C3017.16 34.9858 3014.84 36.1457 3013.39 37.6922C3011.94 39.2386 3011.17 40.9784 3011.17 43.1049C3011.17 45.5213 3011.94 47.4544 3013.49 48.9042C3015.04 50.4507 3017.07 51.7072 3019.68 52.7704C3022.29 53.8337 3025.19 54.8002 3028.38 55.6701C3031.57 56.54 3034.95 57.4099 3038.33 58.3765C3041.71 59.343 3045 60.4062 3048.29 61.6628C3051.57 62.9193 3054.38 64.3691 3056.99 66.2056C3059.6 68.042 3061.63 70.2651 3063.17 72.8748C3064.72 75.4845 3065.49 78.7708 3065.49 82.637C3065.49 88.7263 3063.94 93.5591 3060.95 97.4254C3057.95 101.195 3053.8 103.998 3048.48 105.738C3043.16 107.478 3037.17 108.347 3030.41 108.347L3030.12 107.961Z" fill="white"/>
<path id="Vector_2" d="M3119.15 107.962C3110.45 107.962 3103.01 106.319 3096.63 103.129C3090.25 99.9393 3085.42 95.1066 3082.03 88.6306C3078.65 82.1547 3076.91 74.1323 3076.91 64.37C3076.91 54.6078 3078.65 46.4887 3082.03 40.0128C3085.42 33.6335 3090.25 28.8008 3096.63 25.6111C3102.91 22.4215 3110.45 20.875 3119.15 20.875C3127.85 20.875 3135.48 22.5181 3141.86 25.6111C3148.15 28.8008 3152.98 33.6335 3156.36 40.0128C3159.74 46.3921 3161.48 54.5112 3161.48 64.37C3161.48 74.2289 3159.74 82.1547 3156.36 88.6306C3152.98 95.1066 3148.15 99.9393 3141.86 103.129C3135.58 106.319 3128.04 107.962 3119.15 107.962ZM3119.15 96.2664C3123.59 96.2664 3127.65 95.6865 3131.13 94.43C3134.61 93.1734 3137.51 91.337 3139.93 88.8239C3142.35 86.3109 3144.18 83.1212 3145.44 79.255C3146.7 75.3888 3147.37 70.9426 3147.37 65.9165V63.2102C3147.37 57.9908 3146.7 53.448 3145.44 49.5817C3144.18 45.7155 3142.35 42.5259 3139.93 40.0128C3137.51 37.4998 3134.61 35.5667 3131.13 34.4068C3127.65 33.2469 3123.69 32.5703 3119.15 32.5703C3114.61 32.5703 3110.84 33.1503 3107.36 34.4068C3103.88 35.6633 3100.98 37.4998 3098.56 40.0128C3096.14 42.5259 3094.31 45.7155 3093.15 49.5817C3091.99 53.448 3091.31 57.9908 3091.31 63.2102V65.9165C3091.31 70.9426 3091.89 75.3888 3093.15 79.255C3094.4 83.1212 3096.14 86.3109 3098.56 88.8239C3100.98 91.337 3103.88 93.2701 3107.36 94.43C3110.84 95.6865 3114.8 96.2664 3119.15 96.2664Z" fill="white"/>
<path id="Vector_3" d="M3177.25 106.516V22.4253H3190.98V94.6271H3232.93V106.516H3177.25Z" fill="white"/>
<path id="Vector_4" d="M3275.06 107.966C3267.91 107.966 3261.62 106.806 3256.41 104.486C3251.19 102.166 3247.13 98.4933 3244.42 93.6605C3241.62 88.7311 3240.26 82.5451 3240.26 75.006V22.4253H3253.99V75.3926C3253.99 82.3518 3255.83 87.5712 3259.5 91.0508C3263.17 94.5304 3268.39 96.2702 3275.06 96.2702C3281.73 96.2702 3287.14 94.5304 3290.91 91.0508C3294.68 87.5712 3296.61 82.3518 3296.61 75.3926V22.4253H3310.34V75.006C3310.34 82.5451 3308.89 88.7311 3306.09 93.6605C3303.28 98.59 3299.22 102.166 3293.91 104.486C3288.69 106.806 3282.31 107.966 3274.96 107.966H3275.06Z" fill="white"/>
<path id="Vector_5" d="M3366.21 107.962C3357.61 107.962 3350.36 106.415 3344.37 103.322C3338.38 100.229 3333.74 95.4932 3330.55 89.0172C3327.36 82.5413 3325.81 74.3256 3325.81 64.37C3325.81 49.6784 3329.39 38.7563 3336.54 31.6038C3343.69 24.4513 3353.65 20.875 3366.41 20.875C3373.46 20.875 3379.75 22.0349 3385.35 24.4513C3390.96 26.8677 3395.4 30.3473 3398.59 35.0834C3401.78 39.8195 3403.43 45.8122 3403.43 53.0613H3389.41C3389.41 48.6152 3388.44 44.8456 3386.61 41.7526C3384.77 38.6596 3382.07 36.4366 3378.59 34.8901C3375.11 33.3436 3371.05 32.5703 3366.5 32.5703C3360.8 32.5703 3355.97 33.7302 3352.01 35.9533C3348.04 38.1764 3345.05 41.5593 3343.02 46.1021C3340.99 50.5483 3340.02 56.3476 3340.02 63.3068V66.0132C3340.02 72.9724 3340.99 78.6751 3343.02 83.1213C3345.05 87.5674 3347.95 90.9504 3351.91 93.0768C3355.87 95.2032 3360.7 96.3631 3366.5 96.3631C3371.24 96.3631 3375.4 95.5898 3378.88 94.14C3382.35 92.5935 3385.06 90.3704 3386.99 87.3741C3388.93 84.3778 3389.89 80.6082 3389.89 76.0654H3403.33C3403.33 83.3146 3401.69 89.3072 3398.5 94.0433C3395.31 98.7795 3390.86 102.259 3385.25 104.579C3379.65 106.899 3373.27 108.058 3366.21 108.058V107.962ZM3366.21 128.453C3364.28 128.453 3362.25 128.453 3360.12 128.163C3358 127.969 3356.16 127.776 3354.42 127.39V121.977H3365.92C3367.47 121.977 3368.73 121.687 3369.6 121.204C3370.47 120.72 3370.95 119.85 3370.95 118.787C3370.95 117.821 3370.66 117.047 3369.98 116.564C3369.31 116.081 3368.05 115.791 3366.02 115.791H3360.22L3362.06 104.965H3370.37L3369.5 110.765C3371.63 110.765 3373.56 111.151 3375.4 111.731C3377.23 112.311 3378.59 113.181 3379.65 114.244C3380.71 115.308 3381.2 116.854 3381.2 118.691C3381.2 120.527 3380.71 122.267 3379.75 123.427C3378.78 124.683 3377.62 125.65 3376.07 126.326C3374.53 127.003 3372.88 127.486 3371.14 127.776C3369.4 128.066 3367.66 128.163 3366.02 128.163L3366.21 128.453Z" fill="white"/>
<path id="Vector_6" d="M3456.77 107.964C3448.07 107.964 3440.63 106.321 3434.25 103.132C3427.87 99.942 3423.04 95.1092 3419.66 88.6333C3416.27 82.1573 3414.53 74.1349 3414.53 64.3727C3414.53 54.6105 3416.27 46.4914 3419.66 40.0154C3423.04 33.6362 3427.87 28.8034 3434.25 25.6138C3440.53 22.4241 3448.07 20.8776 3456.77 20.8776C3465.47 20.8776 3473.11 22.5208 3479.49 25.6138C3485.77 28.8034 3490.6 33.6362 3493.98 40.0154C3497.37 46.3947 3499.11 54.5138 3499.11 64.3727C3499.11 74.2316 3497.37 82.1573 3493.98 88.6333C3490.6 95.1092 3485.77 99.942 3479.49 103.132C3473.2 106.321 3465.66 107.964 3456.77 107.964ZM3456.77 96.2691C3461.22 96.2691 3465.28 95.6891 3468.76 94.4326C3472.24 93.1761 3475.14 91.3396 3477.55 88.8266C3479.97 86.3135 3481.81 83.1239 3483.06 79.2577C3484.32 75.3914 3485 70.9453 3485 65.9192V63.2128C3485 57.9934 3484.32 53.4506 3483.06 49.5844C3481.81 45.7181 3479.97 42.5285 3477.55 40.0154C3475.14 37.5024 3472.24 35.5693 3468.76 34.4094C3465.28 33.2495 3461.31 32.573 3456.77 32.573C3452.23 32.573 3448.46 33.1529 3444.98 34.4094C3441.5 35.6659 3438.6 37.5024 3436.18 40.0154C3433.77 42.5285 3431.93 45.7181 3430.77 49.5844C3429.61 53.4506 3428.94 57.9934 3428.94 63.2128V65.9192C3428.94 70.9453 3429.52 75.3914 3430.77 79.2577C3432.03 83.1239 3433.77 86.3135 3436.18 88.8266C3438.6 91.3396 3441.5 93.2727 3444.98 94.4326C3448.46 95.6891 3452.42 96.2691 3456.77 96.2691ZM3436.86 13.1452C3436.86 10.7288 3437.34 8.60236 3438.12 6.57259C3438.89 4.54282 3440.05 2.99633 3441.69 1.7398C3443.34 0.579934 3445.37 0 3447.98 0C3450.1 0 3452.13 0.386623 3454.07 1.06321C3456 1.7398 3457.84 2.41639 3459.67 3.18964C3461.51 3.86623 3463.34 4.25285 3465.08 4.25285C3466.34 4.25285 3467.21 3.96288 3467.89 3.28629C3468.56 2.6097 3468.95 1.54649 3469.14 0.0966557H3476.78C3476.78 2.51305 3476.39 4.63947 3475.62 6.57259C3474.85 8.5057 3473.69 10.1488 3472.04 11.3087C3470.5 12.5652 3468.37 13.1452 3465.76 13.1452C3463.73 13.1452 3461.7 12.7585 3459.77 12.082C3457.84 11.4054 3456 10.6321 3454.16 9.95553C3452.33 9.27894 3450.49 8.89232 3448.65 8.89232C3447.49 8.89232 3446.62 9.27894 3445.85 9.95553C3445.17 10.6321 3444.69 11.6953 3444.59 13.2418H3436.86V13.1452Z" fill="white"/>
<path id="Vector_7" d="M3514.85 106.516V22.4253H3580V34.2173H3528.58V57.608H3574.68V69.3999H3528.58V94.7237H3580.77V106.516H3514.85Z" fill="white"/>
<path id="Vector_8" d="M3628.62 107.961C3624.08 107.961 3619.63 107.478 3615.38 106.511C3611.13 105.544 3607.36 104.095 3604.07 101.968C3600.79 99.8418 3598.27 97.232 3596.34 94.0424C3594.41 90.8528 3593.54 86.9865 3593.54 82.4437C3593.54 81.9604 3593.54 81.4772 3593.54 80.9939C3593.54 80.5106 3593.54 80.124 3593.54 79.834H3607.26C3607.26 79.834 3607.26 80.414 3607.26 80.8972C3607.26 81.3805 3607.26 81.7671 3607.26 82.1538C3607.26 85.1501 3608.13 87.7598 3609.97 89.8862C3611.81 92.0126 3614.32 93.5591 3617.51 94.6223C3620.7 95.6856 3624.47 96.2655 3628.62 96.2655C3630.94 96.2655 3633.07 96.1688 3635.2 95.8789C3637.32 95.5889 3639.26 95.1056 3641 94.5257C3642.74 93.9457 3644.28 93.1725 3645.64 92.2059C3646.89 91.2394 3647.96 90.1762 3648.73 88.823C3649.5 87.5665 3649.79 86.02 3649.79 84.2802C3649.79 81.6705 3649.02 79.5441 3647.57 77.8043C3646.12 76.0645 3643.99 74.6146 3641.48 73.5514C3638.87 72.3915 3635.97 71.425 3632.78 70.4584C3629.59 69.4919 3626.21 68.622 3622.82 67.7521C3619.35 66.8822 3616.06 65.819 3612.87 64.5624C3609.68 63.3059 3606.78 61.8561 3604.17 60.1163C3601.56 58.3765 3599.53 56.1534 3598.08 53.5437C3596.63 50.934 3595.86 47.6477 3595.86 43.7815C3595.86 39.9152 3596.63 36.8223 3598.18 34.0192C3599.72 31.1196 3601.95 28.7998 3604.94 26.8667C3607.84 24.9336 3611.42 23.4838 3615.48 22.5172C3619.54 21.5507 3624.18 21.0674 3629.3 21.0674C3633.75 21.0674 3637.9 21.5507 3641.77 22.5172C3645.73 23.4838 3649.12 24.9336 3652.11 26.8667C3655.01 28.7998 3657.33 31.3129 3659.07 34.3092C3660.71 37.3055 3661.58 40.8818 3661.58 45.1346V46.5845H3647.96V45.038C3647.96 42.4283 3647.18 40.2052 3645.64 38.4654C3644.09 36.6289 3641.96 35.2758 3639.16 34.3092C3636.36 33.3427 3633.17 32.8594 3629.49 32.8594C3625.14 32.8594 3621.57 33.246 3618.57 34.1159C3615.67 34.9858 3613.35 36.1457 3611.9 37.6922C3610.45 39.2386 3609.68 40.9784 3609.68 43.1049C3609.68 45.5213 3610.45 47.4544 3612 48.9042C3613.55 50.4507 3615.58 51.7072 3618.19 52.7704C3620.79 53.8337 3623.69 54.8002 3626.88 55.6701C3630.07 56.54 3633.46 57.4099 3636.84 58.3765C3640.22 59.343 3643.51 60.4062 3646.8 61.6628C3650.08 62.9193 3652.88 64.3691 3655.49 66.2056C3658.1 68.042 3660.13 70.2651 3661.68 72.8748C3663.23 75.4845 3664 78.7708 3664 82.637C3664 88.7263 3662.45 93.5591 3659.46 97.4254C3656.46 101.195 3652.3 103.998 3646.99 105.738C3641.67 107.478 3635.68 108.347 3628.91 108.347L3628.62 107.961Z" fill="white"/>
<path id="Vector_9" d="M2999.02 270.819V186.729H3012.75V258.93H3054.69V270.819H2999.02Z" fill="white"/>
<path id="Vector_10" d="M3076.82 270.819V198.521H3048.98V186.729H3118.57V198.521H3090.54V270.819H3076.82Z" fill="white"/>
<path id="Vector_11" d="M3131.21 270.819V186.729H3163.69C3172.39 186.729 3179.73 188.178 3185.82 191.175C3191.91 194.171 3196.65 198.714 3199.94 204.9C3203.22 211.086 3204.87 219.012 3204.87 228.774C3204.87 238.536 3203.22 246.365 3199.94 252.551C3196.65 258.737 3191.91 263.376 3185.82 266.373C3179.73 269.369 3172.29 270.819 3163.69 270.819H3131.21ZM3144.94 259.027H3163.59C3167.94 259.027 3171.81 258.447 3175.19 257.287C3178.58 256.127 3181.47 254.387 3183.79 252.068C3186.11 249.651 3187.85 246.655 3189.01 243.079C3190.17 239.406 3190.75 235.153 3190.75 230.127V227.517C3190.75 222.491 3190.17 218.142 3189.01 214.469C3187.85 210.796 3186.11 207.799 3183.79 205.48C3181.47 203.063 3178.58 201.324 3175.19 200.164C3171.81 199.004 3167.94 198.424 3163.59 198.424H3144.94V258.93V259.027Z" fill="white"/>
<path id="Vector_12" d="M3209.91 270.819L3242.87 186.729H3260.36L3293.42 270.819H3278.73L3271.28 251.294H3231.46L3224.02 270.819H3209.91ZM3235.81 239.696H3266.74L3257.27 215.049C3256.98 214.275 3256.69 213.309 3256.21 211.956C3255.72 210.602 3255.24 209.249 3254.66 207.703C3254.18 206.156 3253.6 204.61 3253.02 202.967C3252.53 201.42 3252.05 199.97 3251.57 198.617H3250.79C3250.31 200.164 3249.73 202 3248.96 204.127C3248.18 206.253 3247.51 208.283 3246.83 210.216C3246.15 212.149 3245.57 213.792 3245.09 214.952L3235.81 239.599V239.696Z" fill="white"/>
</g>
<g id="Group_2">
<path id="Vector_13" d="M215.639 193.507H0V987.823H215.639V193.507Z" fill="white"/>
<path id="Vector_14" d="M710.33 1.83252H215.646V193.404H710.33V1.83252Z" fill="white"/>
<path id="Vector_15" d="M1707.89 1.83252H1018.74V193.404H803.1V987.721H1018.74V193.501H1325.72V987.817H1541.36V193.501H1848.33V987.817H2063.97V358.009C2063.97 161.314 1904.49 1.83252 1707.89 1.83252Z" fill="white"/>
<path id="Vector_16" d="M2656.69 1.83252H2441.06V193.404H2651.57V796.052H2156.89V987.624H2511.03C2707.73 987.624 2867.21 828.142 2867.21 631.448V1.83252H2656.69Z" fill="white"/>
</g>
<g id="Group_3">
<path id="Vector_17" d="M3524.35 532.864H3349.21L3261.64 381.211L3174.07 532.864H2998.93L3086.5 684.517L2998.93 836.17H3174.07L3261.64 987.822L3349.21 836.17H3524.35L3436.78 684.517L3524.35 532.864ZM3462.78 568.337L3416.29 648.948L3369.8 568.337H3462.78ZM3261.64 452.253L3308.13 532.864H3215.15L3261.64 452.253ZM3060.6 568.337H3153.58L3107.09 648.948L3060.6 568.337ZM3060.6 800.6L3107.09 719.99L3153.58 800.6H3060.6ZM3261.64 916.684L3215.15 836.073H3308.13L3261.64 916.684ZM3328.72 800.6H3194.66L3127.58 684.517L3194.66 568.433H3328.72L3395.8 684.517L3328.72 800.6ZM3462.78 800.6H3369.8L3416.29 719.99L3462.78 800.6Z" fill="white"/>
<path id="Vector_18" d="M3362.43 649.443C3362.24 647.993 3361.95 646.543 3361.66 645.093L3361.46 643.74C3361.27 643.257 3361.27 642.677 3361.08 642.193C3360.59 640.067 3359.92 638.134 3359.34 636.491C3359.14 636.104 3358.85 635.814 3358.56 635.621C3358.56 635.621 3358.56 635.621 3358.37 635.621C3358.37 635.621 3358.18 635.621 3358.08 635.621C3357.89 635.427 3357.6 635.331 3357.21 635.331C3356.82 635.331 3356.44 635.524 3356.05 635.814C3355.86 635.814 3355.76 636.201 3355.66 636.297C3355.47 636.491 3355.28 636.587 3355.18 636.781C3355.18 636.974 3355.18 637.167 3354.99 637.361C3354.5 638.714 3354.02 639.97 3353.54 641.13C3353.25 641.613 3353.05 642.193 3352.76 642.58C3352.28 643.353 3351.99 644.126 3351.41 644.803C3351.12 645.286 3350.83 645.673 3350.54 646.156C3350.06 646.833 3349.48 647.413 3348.99 647.896C3348.8 648.283 3348.51 648.573 3348.22 648.863C3347.45 649.636 3346.67 650.216 3345.9 650.796C3345.42 651.086 3344.93 651.376 3344.55 651.666C3344.16 651.859 3343.77 652.149 3343.39 652.342C3342.9 652.632 3342.42 652.825 3341.94 653.115C3341.65 653.309 3341.26 653.309 3340.97 653.502C3340.49 653.695 3339.91 653.889 3339.43 653.985L3338.07 651.859C3338.07 651.859 3338.65 651.376 3338.94 651.086C3339.72 650.409 3340.39 649.732 3341.07 649.056C3342.32 647.799 3343.39 646.543 3344.45 645.19C3344.84 644.706 3345.13 644.32 3345.42 643.836C3346.19 642.773 3346.87 641.71 3347.45 640.647C3347.64 640.26 3347.93 639.874 3348.12 639.39C3348.8 638.037 3349.28 636.684 3349.67 635.234C3349.67 634.848 3349.86 634.461 3349.86 633.978C3350.06 632.914 3350.25 631.754 3350.25 630.595C3350.25 630.208 3350.25 629.821 3350.25 629.338C3350.25 628.178 3350.06 627.018 3349.86 625.762C3349.86 625.569 3349.67 625.279 3349.67 625.085C3349.67 624.602 3349.48 624.312 3349.38 623.925C3348.99 622.379 3348.41 620.736 3347.74 619.189C3347.74 619.189 3347.74 618.996 3347.54 618.996C3346.77 617.256 3345.71 615.42 3344.45 613.39C3344.16 613.003 3343.77 612.81 3343.39 612.617H3343.19C3343.19 612.617 3342.9 612.423 3342.71 612.423C3342.03 612.423 3341.45 612.81 3341.07 613.293C3341.07 613.293 3341.07 613.293 3341.07 613.487C3340.87 613.777 3340.68 614.163 3340.68 614.55V614.743C3340.68 616.483 3340.68 617.933 3340.39 619.383C3340.39 619.673 3340.39 619.963 3340.2 620.156C3340 621.509 3339.62 622.669 3339.23 623.732C3339.04 624.022 3338.94 624.215 3338.85 624.505C3338.46 625.279 3338.07 625.955 3337.69 626.632C3337.49 626.922 3337.3 627.212 3337.11 627.502C3336.62 628.275 3335.95 629.048 3335.37 629.628C3335.75 628.565 3336.14 627.405 3336.43 626.148C3336.43 625.955 3336.43 625.955 3336.62 625.762V625.569C3336.82 624.602 3337.01 623.539 3337.11 622.379C3337.11 622.186 3337.11 621.992 3337.11 621.799C3337.3 619.479 3337.11 616.773 3336.62 614.067C3336.62 613.873 3336.62 613.68 3336.43 613.487C3336.14 612.133 3335.75 610.587 3335.17 609.137C3333.92 605.851 3332.18 603.144 3330.15 600.921C3328.89 599.568 3327.63 598.408 3326.28 597.442L3326.09 597.248C3323.48 595.412 3320.58 594.059 3317.77 593.092C3317.58 593.092 3317.39 592.899 3317.29 592.899C3315.94 592.416 3314.68 592.126 3313.42 591.836C3313.23 591.836 3313.04 591.836 3312.94 591.836C3311.78 591.642 3310.62 591.352 3309.75 591.256H3309.37C3308.3 591.062 3307.34 591.062 3306.56 590.966H3306.08C3305.31 590.966 3304.63 590.966 3304.05 590.966H3302.99H3302.79C3302.6 590.966 3302.5 591.159 3302.31 591.159C3302.12 591.159 3301.92 591.159 3301.83 591.352C3301.73 591.546 3301.63 591.739 3301.44 591.932C3301.44 592.126 3301.25 592.126 3301.15 592.416C3300.96 593.286 3301.15 594.155 3301.92 594.735C3303.57 596.089 3305.11 597.345 3306.37 598.795C3306.85 599.278 3307.14 599.665 3307.43 600.051C3308.21 600.921 3308.88 601.791 3309.56 602.758L3311.2 605.657H3311.39C3311.78 606.334 3312.17 607.011 3312.46 607.591C3312.94 608.461 3313.33 609.234 3313.62 610.104C3314.1 611.167 3314.29 612.133 3314.58 613.1C3314.87 614.163 3315.16 615.226 3315.36 616.29C3315.55 617.643 3315.84 618.899 3315.84 620.252C3315.84 621.026 3315.84 621.799 3315.84 622.572C3315.84 623.635 3315.84 624.602 3315.84 625.569C3315.84 626.438 3315.65 627.212 3315.55 628.082C3315.36 629.048 3315.26 629.918 3315.07 630.885C3314.87 631.658 3314.58 632.624 3314.39 633.398C3314.2 634.268 3313.91 635.041 3313.62 635.911C3313.33 636.781 3312.94 637.65 3312.55 638.52C3312.26 639.197 3311.88 639.874 3311.59 640.55C3311.1 641.613 3310.52 642.58 3310.04 643.45C3309.56 644.223 3309.08 644.996 3308.59 645.77C3308.11 646.446 3307.72 647.123 3307.24 647.703C3306.27 648.863 3305.21 650.022 3304.24 651.182C3303.95 651.569 3303.57 651.859 3303.18 652.246C3302.31 653.115 3301.34 653.985 3300.38 654.662C3299.99 654.952 3299.6 655.339 3299.12 655.628C3298.06 656.402 3296.9 657.175 3295.74 657.852C3295.45 658.045 3295.16 658.238 3294.87 658.335C3293.51 659.108 3292.16 659.688 3290.71 660.171C3290.03 660.365 3289.36 660.655 3288.68 660.751C3287.81 661.041 3287.04 661.234 3286.17 661.428C3285.39 661.621 3284.52 661.718 3283.65 661.814C3282.98 661.814 3282.4 662.008 3281.72 662.008H3281.43C3279.98 662.008 3273.6 661.814 3271.09 658.528C3271.09 658.528 3271.09 658.335 3271.09 658.238C3271.09 658.238 3270.9 657.755 3270.7 657.465V657.272C3270.41 656.498 3269.93 655.338 3269.64 654.082C3269.06 652.052 3268.58 649.636 3268.67 646.833C3268.67 645.963 3268.67 645.093 3268.87 644.223C3268.87 644.03 3268.87 643.933 3268.87 643.836C3269.06 642.87 3269.25 641.903 3269.54 640.937C3269.54 640.743 3269.54 640.743 3269.74 640.647C3270.03 639.874 3270.32 639.004 3270.8 638.134C3270.99 637.844 3271.19 637.457 3271.28 637.167C3271.67 636.491 3272.06 635.814 3272.44 635.234C3272.73 634.848 3272.93 634.461 3273.22 634.171C3273.89 633.398 3274.57 632.528 3275.34 631.755C3275.34 631.561 3275.54 631.465 3275.63 631.271C3276.6 630.401 3277.28 629.531 3277.95 628.662C3278.15 628.468 3278.24 628.178 3278.44 628.082C3278.92 627.405 3279.31 626.728 3279.6 626.148C3279.6 626.148 3279.79 625.955 3279.79 625.859C3279.79 625.859 3279.79 625.665 3279.98 625.665C3280.37 624.892 3280.76 624.119 3280.95 623.345C3278.82 624.795 3276.31 625.472 3273.6 625.859C3268.19 626.632 3262 626.148 3256.88 627.115C3256.69 627.115 3256.4 627.115 3256.2 627.308C3255.24 627.502 3254.37 627.792 3253.5 628.178C3253.21 628.372 3253.01 628.372 3252.72 628.565C3251.66 629.048 3250.7 629.628 3249.92 630.498V630.691C3248.28 633.398 3249.92 633.881 3248.86 635.621C3248.86 635.814 3248.57 636.007 3248.38 636.104C3248.38 636.104 3248.31 636.168 3248.18 636.297C3248.18 636.297 3247.7 636.491 3247.41 636.587C3244.22 637.167 3242 638.714 3240.55 640.454C3239.68 641.517 3239 642.677 3238.52 643.74C3239.48 643.257 3240.55 642.967 3241.71 642.677C3242.19 642.483 3242.58 642.483 3243.06 642.387C3243.83 642.193 3244.61 642.097 3245.38 642.097C3245.77 642.097 3246.15 641.903 3246.54 641.903C3247.51 641.903 3248.38 642.097 3249.25 642.29H3249.44C3250.5 642.58 3251.28 643.063 3251.95 643.643C3252.15 643.643 3252.24 643.837 3252.43 643.933C3253.11 644.513 3253.59 645.19 3253.88 645.866V646.06C3254.27 646.833 3254.56 647.509 3254.66 648.379C3254.66 649.249 3254.85 650.119 3254.66 650.989C3254.66 650.989 3254.66 650.989 3254.66 651.182C3254.66 651.956 3254.46 652.729 3254.27 653.502C3254.27 653.502 3254.27 653.695 3254.27 653.792V653.985C3254.08 654.565 3253.88 655.242 3253.69 655.822C3253.69 656.015 3253.5 656.208 3253.4 656.305C3253.21 656.788 3253.01 657.078 3252.82 657.368C3252.82 657.562 3252.63 657.658 3252.63 657.852C3252.34 658.238 3252.05 658.431 3251.85 658.625C3251.85 658.625 3251.86 658.818 3251.66 658.818C3249.34 660.848 3242.87 661.524 3241.71 661.718H3241.51C3240.74 661.718 3240.06 661.524 3239.39 661.524C3238.81 661.524 3238.23 661.331 3237.65 661.331C3236.2 661.041 3234.75 660.751 3233.3 660.268H3233.1C3231.65 659.785 3230.3 659.205 3228.95 658.528C3228.46 658.238 3227.88 657.948 3227.3 657.562C3226.53 657.078 3225.66 656.498 3224.79 655.918C3224.02 655.435 3223.34 654.855 3222.57 654.275C3221.8 653.599 3221.02 652.922 3220.25 652.246C3219.77 651.762 3219.38 651.472 3218.99 651.086C3217.83 649.926 3216.77 648.669 3215.8 647.316C3215.32 646.736 3215.03 646.06 3214.55 645.48C3214.06 644.803 3213.68 644.126 3213.19 643.45C3212.61 642.483 3212.13 641.42 3211.55 640.454C3211.26 639.874 3210.97 639.294 3210.68 638.617C3210.29 637.747 3209.91 636.781 3209.62 635.814C3209.33 635.041 3209.13 634.268 3208.84 633.494C3208.55 632.624 3208.36 631.754 3208.07 630.885C3207.88 629.918 3207.78 628.952 3207.59 628.082C3207.39 627.308 3207.3 626.438 3207.3 625.665C3207.1 624.602 3207.1 623.442 3207.1 622.379C3207.1 621.702 3207.1 621.026 3207.1 620.349C3207.3 618.609 3207.49 616.773 3207.88 615.13C3207.88 614.84 3208.07 614.646 3208.07 614.357C3208.46 612.907 3208.84 611.36 3209.42 609.91C3209.62 609.33 3210 608.75 3210.2 608.171C3210.68 607.397 3211.07 606.431 3211.55 605.657H3211.74L3213.29 602.951C3213.97 601.985 3214.64 601.018 3215.51 600.148C3215.8 599.761 3216.19 599.375 3216.48 598.988C3217.83 597.538 3219.38 596.089 3221.22 594.832C3221.5 594.639 3221.7 594.349 3221.79 594.059C3221.99 593.576 3222.18 593.092 3221.99 592.609C3221.8 592.126 3221.6 591.836 3221.22 591.546C3221.02 591.352 3220.93 591.352 3220.73 591.352C3220.54 591.352 3220.44 591.159 3220.25 591.159C3220.25 591.159 3220.25 591.159 3220.06 591.159H3218.99C3218.51 591.159 3217.83 591.159 3216.96 591.159H3216.58C3215.71 591.159 3214.74 591.352 3213.68 591.449H3213.48C3212.42 591.642 3211.26 591.836 3210.1 592.029C3209.91 592.029 3209.81 592.029 3209.62 592.029C3208.46 592.319 3207.1 592.706 3205.75 593.092C3205.56 593.092 3205.36 593.286 3205.17 593.286C3202.46 594.252 3199.76 595.605 3197.15 597.345C3196.95 597.538 3196.66 597.635 3196.47 597.828C3195.21 598.698 3194.15 599.761 3192.99 600.825C3192.8 601.018 3192.51 601.308 3192.41 601.598C3191.35 602.661 3190.48 603.918 3189.71 605.368C3189.51 605.561 3189.51 605.561 3189.42 605.754V605.947C3188.74 607.011 3188.26 608.267 3187.77 609.524C3187.29 610.877 3186.9 612.327 3186.61 613.68C3186.61 614.067 3186.42 614.356 3186.42 614.646C3186.23 616 3186.03 617.256 3185.94 618.513V618.706C3185.94 620.059 3185.94 621.219 3185.94 622.379C3185.94 622.379 3185.94 622.572 3185.94 622.669C3186.13 625.279 3186.71 627.695 3187.48 629.628C3187.48 629.628 3187.48 629.821 3187.48 629.918C3186.9 629.241 3186.23 628.565 3185.65 627.695C3185.45 627.502 3185.45 627.212 3185.26 627.018C3184.78 626.245 3184.29 625.472 3183.91 624.602C3183.91 624.409 3183.71 624.215 3183.62 624.022C3183.23 622.959 3182.94 621.799 3182.65 620.639C3182.65 620.156 3182.46 619.769 3182.46 619.286C3182.26 618.223 3182.17 616.966 3182.26 615.613C3182.26 615.42 3182.26 615.13 3182.26 614.936C3182.26 614.453 3182.07 614.067 3181.88 613.777V613.583C3181.39 613.1 3180.81 612.713 3180.14 612.713C3179.94 612.713 3179.85 612.713 3179.65 612.907H3179.46C3179.46 612.907 3178.69 613.293 3178.4 613.68C3178.4 613.68 3178.4 613.97 3178.2 614.067C3177.14 615.71 3176.27 617.256 3175.5 618.803C3175.3 619.093 3175.21 619.383 3175.01 619.673C3174.24 621.219 3173.76 622.669 3173.37 624.119C3173.18 624.602 3173.18 624.892 3173.08 625.279C3173.08 625.472 3172.89 625.762 3172.89 626.052C3172.69 627.308 3172.5 628.565 3172.5 629.725V630.691C3172.5 631.948 3172.69 633.204 3172.98 634.461C3172.98 634.751 3173.18 635.137 3173.18 635.524C3173.56 636.877 3174.05 638.327 3174.72 639.777C3174.92 640.164 3175.21 640.55 3175.4 640.84C3176.08 642 3176.75 643.16 3177.72 644.416C3177.91 644.803 3178.11 645.093 3178.4 645.383C3179.46 646.833 3180.81 648.283 3182.26 649.829C3182.55 650.022 3182.75 650.312 3183.04 650.602C3183.62 651.182 3184.1 651.666 3184.68 652.246C3185.65 653.019 3186.71 653.985 3187.77 654.759C3187.97 654.952 3188.06 655.049 3188.26 655.242C3188.06 655.242 3187.77 655.242 3187.48 655.049C3185.36 654.855 3182.94 654.275 3180.43 653.212C3180.23 653.019 3179.94 653.019 3179.75 652.825C3179.07 652.535 3178.4 652.149 3177.72 651.762C3177.53 651.569 3177.24 651.376 3176.95 651.279C3176.17 650.699 3175.3 650.022 3174.43 649.249C3174.24 649.056 3174.05 648.766 3173.85 648.476C3173.27 647.896 3172.69 647.219 3172.11 646.446C3171.82 646.06 3171.63 645.673 3171.34 645.19C3170.86 644.416 3170.37 643.74 3169.99 642.87C3169.79 642.387 3169.5 642.097 3169.31 641.517C3168.63 640.164 3168.05 638.714 3167.57 637.071C3167.38 636.587 3167.18 636.297 3166.8 636.007C3166.51 635.814 3166.22 635.717 3165.83 635.717H3165.64C3165.64 635.717 3164.96 635.717 3164.67 635.911H3164.48C3164.28 635.911 3164.28 636.201 3164.19 636.297C3163.99 636.491 3163.8 636.684 3163.71 636.877C3163.42 637.747 3163.13 638.617 3162.74 639.584C3162.74 639.97 3162.55 640.357 3162.45 640.647C3162.26 641.227 3162.16 641.71 3161.97 642.29C3161.39 644.61 3160.9 647.219 3160.61 649.829C3160.32 652.729 3160.32 655.725 3160.61 658.625C3160.81 660.848 3161.39 662.974 3162.16 665.004C3162.16 665.197 3162.35 665.294 3162.35 665.487C3162.64 666.261 3163.03 667.034 3163.42 667.807C3163.61 668 3163.61 668.29 3163.8 668.387C3164.28 669.257 3164.86 670.127 3165.54 670.997L3165.83 671.287C3166.41 671.963 3167.09 672.64 3167.76 673.22C3167.96 673.413 3168.25 673.703 3168.54 673.896C3169.31 674.38 3169.99 674.96 3170.86 675.346C3171.05 675.54 3171.24 675.636 3171.44 675.829C3172.5 676.313 3173.56 676.893 3174.72 677.279C3175.01 677.279 3175.3 677.473 3175.59 677.569C3176.66 677.859 3177.62 678.149 3178.78 678.439C3179.17 678.439 3179.46 678.633 3179.85 678.633C3181.3 678.826 3182.84 679.116 3184.58 679.212C3184.39 679.212 3184.29 679.212 3184.1 679.406C3183.13 679.792 3182.07 680.082 3181.01 680.276C3180.81 680.276 3180.72 680.276 3180.52 680.276C3179.36 680.566 3178.01 680.759 3176.66 680.759H3175.01C3174.43 680.759 3173.95 680.759 3173.37 680.566C3172.89 680.566 3172.6 680.372 3172.11 680.372C3171.63 680.372 3171.15 680.179 3170.66 680.082C3169.89 679.889 3169.21 679.599 3168.44 679.406C3168.25 679.212 3167.96 679.212 3167.67 679.116C3166.7 678.729 3165.64 678.343 3164.57 677.763C3164.28 677.569 3163.99 677.473 3163.61 677.473C3163.61 677.473 3163.61 677.473 3163.42 677.473C3163.13 677.473 3162.93 677.666 3162.64 677.763C3162.45 677.763 3162.35 677.763 3162.26 677.763C3161.97 678.053 3161.77 678.439 3161.58 678.826C3161.39 679.212 3161.39 679.599 3161.58 679.986C3161.87 681.049 3162.35 682.209 3162.74 683.272C3162.74 683.465 3162.74 683.562 3162.93 683.659C3163.41 684.819 3163.99 685.978 3164.57 687.042C3164.57 687.042 3164.77 687.235 3164.77 687.332C3165.35 688.395 3166.02 689.361 3166.8 690.328C3166.99 690.521 3166.99 690.618 3167.09 690.714C3167.86 691.778 3168.73 692.648 3169.6 693.517L3170.28 694.194C3171.15 694.967 3172.11 695.837 3173.18 696.514C3173.37 696.514 3173.47 696.707 3173.66 696.804C3174.72 697.48 3175.79 697.964 3176.85 698.447C3177.24 698.64 3177.53 698.834 3177.91 698.93C3179.17 699.413 3180.52 699.8 3181.88 700.09C3182.17 700.09 3182.55 700.09 3182.84 700.283C3184.1 700.477 3185.45 700.67 3186.9 700.67C3187.1 700.67 3187.39 700.67 3187.58 700.67H3188.06C3188.06 700.67 3188.64 700.67 3188.93 700.67H3190.19C3190.19 700.67 3190.58 700.67 3190.77 700.477C3191.83 700.477 3192.99 700.283 3194.15 699.993C3194.63 699.993 3194.92 699.8 3195.41 699.8C3196.76 699.51 3198.31 699.027 3199.85 698.544C3200.05 698.544 3200.14 698.544 3200.34 698.35L3200.14 698.544C3199.18 699.607 3198.11 700.573 3196.86 701.443C3196.66 701.443 3196.66 701.443 3196.57 701.637C3195.31 702.41 3193.96 703.183 3192.51 703.763C3192.22 703.763 3191.93 703.956 3191.64 704.053C3189.9 704.633 3187.97 705.02 3185.84 705.02C3185.07 705.02 3184.49 705.02 3183.62 705.02C3183.42 705.02 3183.33 705.02 3183.13 705.02C3182.94 705.02 3182.65 705.02 3182.46 705.213C3182.17 705.406 3181.97 705.696 3181.78 705.986H3181.59C3181.39 706.276 3181.39 706.566 3181.39 706.953C3182.17 710.142 3191.74 716.908 3204.01 715.168C3204.2 715.168 3204.49 715.168 3204.69 715.168C3206.04 714.975 3207.49 714.685 3208.84 714.105C3209.91 713.815 3210.87 713.429 3211.74 713.042C3213.48 712.365 3215.03 711.689 3216.48 711.012C3218.32 710.046 3219.77 708.982 3221.02 708.113C3219.67 711.302 3217.06 714.685 3212.42 716.425C3211.65 716.715 3210.87 717.101 3209.91 717.295C3209.62 717.295 3209.42 717.488 3209.13 717.681C3208.55 718.068 3208.07 718.551 3208.07 719.325C3208.07 719.518 3208.26 719.711 3208.26 719.808C3208.46 720.581 3208.84 721.161 3209.62 721.354C3210.2 721.548 3210.97 721.838 3211.74 721.934C3211.94 721.934 3212.23 721.934 3212.52 722.128C3213.1 722.128 3213.68 722.321 3214.35 722.321C3214.84 722.321 3215.22 722.321 3215.71 722.514C3216.19 722.514 3216.58 722.514 3217.06 722.514C3217.74 722.514 3218.32 722.514 3218.99 722.514H3219.19C3219.19 722.514 3219.38 722.514 3219.48 722.514C3220.73 722.514 3222.08 722.514 3223.34 722.321C3223.63 722.321 3224.02 722.321 3224.4 722.321C3225.47 722.128 3226.53 722.031 3227.59 721.838C3228.08 721.838 3228.46 721.644 3228.95 721.548C3229.91 721.354 3230.78 721.064 3231.75 720.774C3232.23 720.581 3232.62 720.581 3233.1 720.388C3234.17 719.904 3235.23 719.325 3236.1 718.745C3236.29 718.745 3236.39 718.745 3236.49 718.551L3233.59 722.997L3215.22 751.801C3214.84 752.284 3214.74 752.864 3214.55 753.444C3214.26 754.507 3214.06 755.474 3214.35 756.634C3214.35 756.827 3214.55 757.117 3214.64 757.31C3214.84 757.793 3214.93 758.18 3215.13 758.47C3215.32 758.76 3215.51 758.953 3215.71 759.147C3215.9 759.533 3216.19 759.727 3216.48 760.017C3216.77 760.21 3216.96 760.307 3217.25 760.5C3217.64 760.693 3217.93 760.887 3218.32 760.983C3218.61 760.983 3218.8 761.176 3219.09 761.273C3219.48 761.273 3219.86 761.466 3220.15 761.466C3220.35 761.466 3220.54 761.466 3220.73 761.466H3221.12C3221.12 761.466 3221.41 761.466 3221.6 761.466C3222.08 761.466 3222.38 761.273 3222.86 761.176C3223.05 761.176 3223.15 761.176 3223.34 760.983C3223.73 760.79 3224.11 760.5 3224.4 760.307C3224.6 760.307 3224.69 760.113 3224.79 760.017C3225.27 759.63 3225.56 759.243 3225.85 758.663L3245.57 727.927L3239.29 752.381L3233.01 776.931V777.125C3232.62 778.671 3232.81 780.314 3233.68 781.667L3233.88 781.861C3234.17 782.344 3234.46 782.634 3234.84 782.924C3235.04 783.117 3235.33 783.407 3235.52 783.504C3235.71 783.697 3235.91 783.794 3236.1 783.891C3236.49 784.084 3236.87 784.181 3237.16 784.374C3237.16 784.374 3237.36 784.374 3237.45 784.374C3237.94 784.567 3238.32 784.567 3238.81 784.567H3239C3239 784.567 3239.19 784.567 3239.29 784.567C3239.77 784.567 3240.26 784.567 3240.64 784.374C3240.84 784.374 3241.03 784.374 3241.22 784.18C3241.71 783.987 3242 783.794 3242.38 783.601C3242.58 783.407 3242.77 783.407 3242.96 783.214C3243.35 782.924 3243.64 782.634 3243.93 782.247C3244.12 782.054 3244.22 781.957 3244.32 781.764C3244.61 781.281 3244.8 780.798 3244.99 780.314C3244.99 780.121 3245.19 780.024 3245.19 779.831L3245.67 778.091L3250.89 757.89L3255.14 741.459V786.5C3255.14 789.98 3257.94 792.783 3261.42 792.783C3264.03 792.783 3266.35 791.14 3267.32 788.917C3267.61 788.143 3267.8 787.273 3267.8 786.404V741.169L3271.38 755.087L3272.15 757.794L3272.54 759.34L3277.76 779.831C3277.95 780.604 3278.24 781.184 3278.63 781.764C3278.63 781.957 3278.82 782.054 3279.02 782.247C3279.31 782.634 3279.6 783.021 3279.98 783.311C3280.18 783.311 3280.37 783.504 3280.46 783.601C3280.95 783.794 3281.24 784.084 3281.72 784.18C3281.91 784.18 3282.11 784.181 3282.3 784.374C3282.78 784.567 3283.17 784.567 3283.65 784.567C3283.65 784.567 3283.85 784.567 3283.94 784.567H3284.14C3284.62 784.567 3285.1 784.567 3285.59 784.374C3285.59 784.374 3285.59 784.374 3285.78 784.374C3286.26 784.374 3286.55 784.18 3286.94 783.891C3287.13 783.891 3287.23 783.697 3287.42 783.601C3287.71 783.407 3288 783.214 3288.29 782.924C3288.49 782.731 3288.58 782.441 3288.78 782.247C3288.97 782.054 3289.16 781.764 3289.26 781.571C3290.03 780.121 3290.32 778.381 3289.84 776.835L3280.18 738.849L3277.37 727.927L3290.42 748.321L3296.7 758.083L3296.99 758.567C3297.48 759.437 3298.25 760.017 3299.02 760.597C3299.22 760.597 3299.31 760.79 3299.51 760.79C3300.28 761.176 3301.05 761.37 3301.92 761.37H3302.12C3302.41 761.37 3302.6 761.37 3302.89 761.37C3303.08 761.37 3303.37 761.37 3303.66 761.176C3304.05 761.176 3304.44 760.983 3304.73 760.79C3305.02 760.79 3305.31 760.596 3305.6 760.403C3305.79 760.21 3306.08 760.017 3306.37 759.92C3306.76 759.63 3306.95 759.34 3307.24 759.05C3307.43 758.857 3307.53 758.663 3307.72 758.47C3308.01 757.987 3308.21 757.407 3308.3 756.827C3308.3 756.634 3308.5 756.634 3308.5 756.537C3308.98 754.797 3308.5 753.154 3307.72 751.801L3305.4 748.225L3300.76 740.975L3286.46 718.648C3286.46 718.648 3286.65 718.648 3286.75 718.841C3287.71 719.421 3288.68 719.904 3289.74 720.388C3290.23 720.581 3290.81 720.774 3291.39 720.871C3292.16 721.161 3292.84 721.354 3293.71 721.548C3294.48 721.741 3295.06 721.838 3295.83 722.031C3296.51 722.224 3297.09 722.224 3297.67 722.321C3298.54 722.321 3299.41 722.514 3300.28 722.514C3300.76 722.514 3301.15 722.514 3301.63 722.514C3302.31 722.514 3302.99 722.707 3303.66 722.707C3305.21 722.707 3306.56 722.514 3308.01 722.418C3309.08 722.418 3310.04 722.224 3310.82 722.031C3310.82 722.031 3311.01 722.031 3311.1 722.031C3311.88 721.838 3312.46 721.741 3313.13 721.548C3313.13 721.548 3313.33 721.548 3313.42 721.548C3313.81 721.548 3314.1 721.161 3314.29 720.871C3314.68 720.484 3314.97 720.001 3314.87 719.518C3314.87 718.551 3314.2 717.681 3313.23 717.488C3306.76 716.135 3303.66 712.172 3302.02 708.402C3304.53 710.432 3308.3 712.462 3313.62 714.202C3313.81 714.202 3314 714.202 3314.2 714.395C3315.55 714.878 3316.81 715.168 3318.16 715.362C3318.55 715.362 3318.84 715.555 3319.22 715.555C3328.41 716.908 3336.14 713.332 3339.71 710.142L3339.91 709.949C3340.39 709.466 3340.78 709.176 3341.07 708.692C3341.07 708.692 3341.26 708.692 3341.26 708.499C3341.55 708.113 3341.74 707.726 3341.74 707.436C3341.74 707.436 3341.74 707.243 3341.74 707.146C3341.74 706.953 3341.74 706.663 3341.55 706.566V706.373C3341.36 705.986 3341.07 705.696 3340.78 705.503C3340.59 705.503 3340.29 705.309 3340 705.309C3340 705.309 3339.81 705.309 3339.62 705.309C3338.84 705.309 3338.07 705.309 3337.3 705.309C3336.33 705.309 3335.37 705.309 3334.5 705.116C3334.11 705.116 3333.82 704.923 3333.43 704.923C3332.76 704.73 3332.18 704.633 3331.5 704.44C3331.21 704.246 3330.92 704.15 3330.53 704.053C3329.18 703.473 3327.83 702.796 3326.67 702.023C3326.47 702.023 3326.38 701.83 3326.28 701.733C3324.93 700.863 3323.86 699.8 3322.8 698.834C3324.44 699.414 3325.99 699.897 3327.54 700.187C3328.02 700.187 3328.5 700.38 3328.89 700.477C3329.95 700.67 3331.02 700.863 3332.08 700.96C3332.27 700.96 3332.56 700.96 3332.76 701.153C3333.34 701.153 3333.92 701.153 3334.4 701.153H3335.27C3335.27 701.153 3335.75 701.153 3336.04 701.153C3337.4 701.153 3338.65 700.96 3339.81 700.767C3340.2 700.767 3340.58 700.767 3340.97 700.573C3342.32 700.283 3343.58 699.8 3344.84 699.413C3345.22 699.22 3345.61 699.027 3346 698.93C3347.06 698.447 3348.03 697.867 3348.99 697.287C3349.19 697.094 3349.48 696.997 3349.77 696.804C3350.73 696.127 3351.6 695.451 3352.38 694.677C3352.67 694.484 3352.96 694.194 3353.15 693.904C3354.02 693.034 3354.79 692.164 3355.57 691.198C3355.76 691.004 3355.86 690.811 3356.05 690.618C3356.73 689.748 3357.31 688.781 3357.89 687.815C3357.89 687.622 3358.08 687.622 3358.08 687.428C3358.66 686.365 3359.24 685.108 3359.72 684.045C3359.72 684.045 3359.72 683.852 3359.72 683.755C3360.21 682.692 3360.59 681.436 3360.88 680.372C3360.88 680.372 3360.88 680.179 3360.88 680.082C3360.88 679.792 3360.88 679.599 3360.88 679.309C3360.88 679.309 3360.88 679.116 3360.69 679.019C3360.5 678.826 3360.4 678.536 3360.21 678.439C3360.21 678.439 3360.01 678.246 3359.92 678.246C3359.72 678.053 3359.43 678.053 3359.14 677.956H3358.95H3358.76C3358.47 677.956 3358.18 677.956 3357.79 678.246C3357.02 678.632 3356.34 679.019 3355.57 679.309C3351.8 680.856 3348.41 681.339 3345.42 681.339C3344.16 681.339 3343 681.146 3341.84 680.952C3341.55 680.952 3341.26 680.759 3340.97 680.759C3339.91 680.469 3338.85 680.179 3337.88 679.792H3337.69C3339.43 679.792 3340.97 679.406 3342.52 679.212C3342.71 679.212 3343 679.019 3343.19 679.019C3344.55 678.729 3345.8 678.439 3346.96 677.956C3347.16 677.956 3347.25 677.956 3347.35 677.763C3348.7 677.279 3349.96 676.796 3351.02 676.119C3352.09 675.636 3352.96 674.96 3353.83 674.283C3354.02 674.09 3354.12 673.993 3354.31 673.8C3355.08 673.123 3355.86 672.447 3356.53 671.673L3356.73 671.48C3357.4 670.707 3358.08 669.837 3358.56 668.87C3358.56 668.677 3358.76 668.484 3358.85 668.29C3359.34 667.517 3359.63 666.841 3359.92 665.971C3359.92 665.777 3360.11 665.584 3360.21 665.391C3360.98 663.361 3361.46 661.331 3361.75 659.205V658.818C3362.14 655.918 3362.14 653.019 3361.95 650.119L3362.43 649.443Z" fill="white"/>
</g>
</g>
</svg>
